<?xml version="1.0" encoding="UTF-8" standalone="no"?>
<!-- Created with Inkscape (http://www.inkscape.org/) -->

<svg
   xmlns:dc="http://purl.org/dc/elements/1.1/"
   xmlns:cc="http://creativecommons.org/ns#"
   xmlns:rdf="http://www.w3.org/1999/02/22-rdf-syntax-ns#"
   xmlns:svg="http://www.w3.org/2000/svg"
   xmlns="http://www.w3.org/2000/svg"
   xmlns:sodipodi="http://sodipodi.sourceforge.net/DTD/sodipodi-0.dtd"
   xmlns:inkscape="http://www.inkscape.org/namespaces/inkscape"
   width="147.075"
   height="100"
   viewBox="0 0 38.913592 26.458333"
   version="1.1"
   id="svg2699"
   inkscape:version="0.92.2 (unknown)"
   sodipodi:docname="arduino-logo.svg">
  <defs
     id="defs2693" />
  <sodipodi:namedview
     id="base"
     pagecolor="#ffffff"
     bordercolor="#666666"
     borderopacity="1.0"
     inkscape:pageopacity="0.0"
     inkscape:pageshadow="2"
     inkscape:zoom="16.01"
     inkscape:cx="88.038726"
     inkscape:cy="50"
     inkscape:document-units="mm"
     inkscape:current-layer="layer1"
     showgrid="false"
     units="px"
     inkscape:window-width="3775"
     inkscape:window-height="2136"
     inkscape:window-x="65"
     inkscape:window-y="24"
     inkscape:window-maximized="1" />
  <metadata
     id="metadata2696">
    <rdf:RDF>
      <cc:Work
         rdf:about="">
        <dc:format>image/svg+xml</dc:format>
        <dc:type
           rdf:resource="http://purl.org/dc/dcmitype/StillImage" />
        <dc:title />
      </cc:Work>
    </rdf:RDF>
  </metadata>
  <g
     inkscape:label="Layer 1"
     inkscape:groupmode="layer"
     id="layer1"
     transform="translate(0,-270.54167)">
    <g
       transform="matrix(0.37797876,0,0,-0.37797876,-41.519115,348.5145)"
       id="g2595"
       style="fill:#056c8c;fill-opacity:1">
      <g
         transform="translate(166.7251,181.5498)"
         id="g784"
         style="fill:#056c8c;fill-opacity:1">
        <path
           inkscape:connector-curvature="0"
           id="path786"
           style="fill:#056c8c;fill-opacity:1;fill-rule:evenodd;stroke:none"
           d="M 0,0 C 10.791,24.441 37.236,17.706 37.158,-0.04 37.079,-17.786 10.476,-23.315 0,0 m -47.765,0 c 0,18.218 25.747,23.969 37.724,0 -12.213,-23.079 -37.724,-18.219 -37.724,0 m -9.115,0 c 0,-25.248 34.712,-34.648 51.861,-8.939 17.772,-26.655 51.091,-15.482 51.091,8.978 0,24.46 -33.162,36.22 -51.091,8.909 C -22.011,35.943 -56.88,25.247 -56.88,0" />
      </g>
      <path
         inkscape:connector-curvature="0"
         id="path788"
         style="fill:#056c8c;fill-opacity:1;fill-rule:evenodd;stroke:none"
         d="m 128.637,179.067 h 15.279 v 5.04 h -15.279 z" />
      <g
         transform="translate(184.0815,179.1455)"
         id="g790"
         style="fill:#056c8c;fill-opacity:1">
        <path
           inkscape:connector-curvature="0"
           id="path792"
           style="fill:#056c8c;fill-opacity:1;fill-rule:evenodd;stroke:none"
           d="M 0,0 H -5.04 V 5.355 H 0 v 5.041 H 5.356 V 5.355 h 5.04 V 0 H 5.356 V -5.04 H 0 Z" />
      </g>
      <g
         transform="translate(209.1855,201.5312)"
         id="g794"
         style="fill:#056c8c;fill-opacity:1">
        <path
           inkscape:connector-curvature="0"
           id="path796"
           style="fill:#056c8c;fill-opacity:1;fill-rule:nonzero;stroke:none"
           d="m 0,0 v 2.727 h 0.637 l 0.383,-1.86 0.378,1.86 h 0.64 V 0 H 1.642 V 2.146 L 1.223,0 H 0.813 L 0.395,2.146 V 0 Z M -1.32,0 V 2.265 H -1.946 V 2.727 H -0.27 V 2.265 H -0.894 V 0 Z" />
      </g>
      <g
         transform="translate(149.9443,143.5244)"
         id="g798"
         style="fill:#056c8c;fill-opacity:1">
        <path
           inkscape:connector-curvature="0"
           id="path800"
           style="fill:#056c8c;fill-opacity:1;fill-rule:evenodd;stroke:none"
           d="M 0,0 C 0.015,2.833 -1.469,4.181 -4.45,4.044 V 0 -4.047 C -1.469,-4.185 0.015,-2.835 0,0 M 3.524,0 C 3.549,-4.955 1.002,-7.354 -3.918,-7.196 H -8.132 V 0 7.189 h 4.214 C 1.002,7.347 3.549,4.951 3.524,0" />
      </g>
      <g
         transform="translate(161.7192,136.3281)"
         id="g802"
         style="fill:#056c8c;fill-opacity:1">
        <path
           inkscape:connector-curvature="0"
           id="path804"
           style="fill:#056c8c;fill-opacity:1;fill-rule:evenodd;stroke:none"
           d="m 0,0 c -4.051,0 -5.632,1.347 -5.789,4.763 v 9.63 h 3.702 V 4.921 C -2.168,3.4 -1.472,2.755 0,2.755 c 1.472,0 2.159,0.645 2.079,2.166 v 9.472 H 5.764 V 4.763 C 5.607,1.347 4.051,0 0,0" />
      </g>
      <g
         transform="translate(175.7373,150.7207)"
         id="g806"
         style="fill:#056c8c;fill-opacity:1">
        <path
           inkscape:connector-curvature="0"
           id="path808"
           style="fill:#056c8c;fill-opacity:1;fill-rule:evenodd;stroke:none"
           d="m 0,0 h -5.395 v -3.078 h 3.583 v -4.118 -4.117 h -3.583 v -3.08 H 0 5.39 v 3.08 H 1.81 v 4.117 4.118 H 5.39 V 0 Z" />
      </g>
      <g
         transform="translate(191.6846,143.5244)"
         id="g810"
         style="fill:#056c8c;fill-opacity:1">
        <path
           inkscape:connector-curvature="0"
           id="path812"
           style="fill:#056c8c;fill-opacity:1;fill-rule:evenodd;stroke:none"
           d="M 0,0 -3.938,7.196 H -7.875 V -7.196 h 3.465 v 8.651 l 0.827,-1.494 3.938,-7.196 H 4.293 V 7.157 H 0.827 v -8.65 z" />
      </g>
      <g
         transform="translate(203.813,136.3281)"
         id="g814"
         style="fill:#056c8c;fill-opacity:1">
        <path
           inkscape:connector-curvature="0"
           id="path816"
           style="fill:#056c8c;fill-opacity:1;fill-rule:evenodd;stroke:none"
           d="m 0,0 c -4.143,0 -6.086,2.288 -6.086,7.196 0,4.908 1.943,7.194 6.086,7.194 4.143,0 6.017,-2.286 6.017,-7.194 C 6.017,2.289 4.143,0 0,0 m 0,11.401 c -2.069,0 -2.245,-1.843 -2.245,-4.205 0,-2.361 0.176,-4.207 2.245,-4.207 2.069,0 2.219,1.846 2.219,4.207 0,2.362 -0.15,4.205 -2.219,4.205" />
      </g>
      <g
         transform="translate(120.5005,142.1758)"
         id="g818"
         style="fill:#056c8c;fill-opacity:1">
        <path
           inkscape:connector-curvature="0"
           id="path820"
           style="fill:#056c8c;fill-opacity:1;fill-rule:evenodd;stroke:none"
           d="m 0,0 h -2.442 l 1.201,4.509 z M 5.513,-5.848 0.669,8.545 H -3.19 L -8.057,-5.848 h 4.158 l 0.768,3.013 h 3.879 l 0.906,-3.013 z" />
      </g>
      <g
         transform="translate(131.6265,143.6328)"
         id="g822"
         style="fill:#056c8c;fill-opacity:1">
        <path
           inkscape:connector-curvature="0"
           id="path824"
           style="fill:#056c8c;fill-opacity:1;fill-rule:evenodd;stroke:none"
           d="M 0,0 V 3.898 L 1.718,3.897 C 4.967,3.862 3.924,-0.056 1.757,-0.001 Z M -3.623,7.088 V -7.305 h 3.583 v 4.529 H 1.457 L 4.056,-7.305 H 8.27 l -3.289,5.316 c 3.796,1.61 3.901,9.077 -2.973,9.077 z" />
      </g>
    </g>
  </g>
</svg>
