<?xml version="1.0" encoding="UTF-8" standalone="no"?>
<!-- Generator: Adobe Illustrator 16.0.3, SVG Export Plug-In . SVG Version: 6.00 Build 0)  -->

<svg
   xmlns:dc="http://purl.org/dc/elements/1.1/"
   xmlns:cc="http://creativecommons.org/ns#"
   xmlns:rdf="http://www.w3.org/1999/02/22-rdf-syntax-ns#"
   xmlns:svg="http://www.w3.org/2000/svg"
   xmlns="http://www.w3.org/2000/svg"
   xmlns:sodipodi="http://sodipodi.sourceforge.net/DTD/sodipodi-0.dtd"
   xmlns:inkscape="http://www.inkscape.org/namespaces/inkscape"
   version="1.1"
   id="Layer_1"
   x="0px"
   y="0px"
   width="150"
   height="220"
   viewBox="0 0 150 220"
   enable-background="new 0 0 612 792"
   xml:space="preserve"
   sodipodi:docname="io.svg"
   inkscape:version="0.92.2 (unknown)"><metadata
     id="metadata15"><rdf:RDF><cc:Work
         rdf:about=""><dc:format>image/svg+xml</dc:format><dc:type
           rdf:resource="http://purl.org/dc/dcmitype/StillImage" /><dc:title></dc:title></cc:Work></rdf:RDF></metadata><defs
     id="defs13" /><sodipodi:namedview
     pagecolor="#ffffff"
     bordercolor="#666666"
     borderopacity="1"
     objecttolerance="10"
     gridtolerance="10"
     guidetolerance="10"
     inkscape:pageopacity="0"
     inkscape:pageshadow="2"
     inkscape:window-width="3775"
     inkscape:window-height="2136"
     id="namedview11"
     showgrid="false"
     inkscape:zoom="10.207751"
     inkscape:cx="81.631603"
     inkscape:cy="136.26899"
     inkscape:window-x="65"
     inkscape:window-y="24"
     inkscape:window-maximized="1"
     inkscape:current-layer="Layer_1" /><path
     inkscape:connector-curvature="0"
     style="clip-rule:evenodd;fill:#ffffff;fill-opacity:1;fill-rule:evenodd;stroke-width:1"
     d="m 104.7212,79 c 0,-6.1619 0,-11.27808 0,-16.91675 -34.973134,0 -69.638384,0 -104.55022,0 0,-15.092693 0,-29.660719 0,-44.839888 34.779168,0 69.539592,0 104.62233,0 0,-5.723719 0,-10.852868 0,-17.205031 15.55778,13.693829 30.32532,26.691476 45.37767,39.940632 C 135.1107,52.90886 120.30999,65.61607 104.7212,79 Z"
     id="path4" /><path
     inkscape:connector-curvature="0"
     style="clip-rule:evenodd;fill:#ffffff;fill-opacity:1;fill-rule:evenodd;stroke-width:1"
     d="m 45.403744,202.84317 c 0,5.90025 0,11.10148 0,17.15683 C 29.947744,206.73435 15.147811,194.03211 0,181.0305 c 15.059757,-13.27142 29.864018,-26.31777 45.16051,-39.79839 0,5.81008 0,11.01419 0,16.76944 35.081466,0 69.84319,0 104.83949,0 0,15.16074 0,29.77177 0,44.8409 -34.59429,7.2e-4 -69.267965,7.2e-4 -104.596256,7.2e-4 z"
     id="path6" /></svg>