<?xml version="1.0" encoding="utf-8"?>
<!-- Generator: Adobe Illustrator 16.0.3, SVG Export Plug-In . SVG Version: 6.00 Build 0)  -->
<!DOCTYPE svg PUBLIC "-//W3C//DTD SVG 1.1//EN" "http://www.w3.org/Graphics/SVG/1.1/DTD/svg11.dtd">
<svg version="1.1" id="Layer_1" xmlns="http://www.w3.org/2000/svg" xmlns:xlink="http://www.w3.org/1999/xlink" x="0px" y="0px"
	 width="144.667px" height="60.667px" viewBox="0 0 144.667 60.667" enable-background="new 0 0 144.667 60.667"
	 xml:space="preserve">
<g>
	<g>
		<rect x="13.877" y="6.074" fill="none" stroke="#010101" stroke-miterlimit="10" width="30.415" height="30.415"/>
		<rect x="4.982" y="15.543" fill="none" stroke="#010101" stroke-miterlimit="10" width="30.414" height="30.415"/>
		<line fill="none" stroke="#010101" stroke-miterlimit="10" x1="4.982" y1="15.543" x2="13.877" y2="6.074"/>
		<line fill="none" stroke="#010101" stroke-miterlimit="10" x1="35.396" y1="15.543" x2="44.292" y2="6.074"/>
		<line fill="none" stroke="#010101" stroke-miterlimit="10" x1="35.396" y1="45.958" x2="44.292" y2="36.489"/>
		<line fill="none" stroke="#010101" stroke-miterlimit="10" x1="4.982" y1="45.958" x2="13.877" y2="36.489"/>
	</g>
	<g>
		<path fill="#010101" d="M51.812,18.485h7.197c1.425,0,2.486,0.06,3.187,0.178s1.326,0.366,1.879,0.743
			c0.553,0.377,1.014,0.878,1.382,1.504c0.368,0.626,0.553,1.329,0.553,2.106c0,0.843-0.228,1.617-0.682,2.321
			c-0.454,0.705-1.07,1.232-1.849,1.584c1.098,0.319,1.94,0.864,2.53,1.633s0.884,1.674,0.884,2.714c0,0.819-0.19,1.615-0.57,2.389
			c-0.381,0.773-0.901,1.392-1.561,1.854c-0.659,0.463-1.472,0.748-2.438,0.854c-0.605,0.066-2.067,0.107-4.384,0.123h-6.129V18.485
			z M55.447,21.482v4.163h2.382c1.417,0,2.297-0.02,2.641-0.061c0.622-0.074,1.111-0.289,1.468-0.645s0.534-0.825,0.534-1.406
			c0-0.557-0.153-1.009-0.461-1.357c-0.307-0.348-0.763-0.559-1.369-0.632c-0.36-0.041-1.396-0.062-3.106-0.062H55.447z
			 M55.447,28.642v4.814h3.365c1.31,0,2.141-0.037,2.492-0.111c0.541-0.098,0.98-0.337,1.32-0.718s0.51-0.891,0.51-1.529
			c0-0.541-0.131-0.999-0.393-1.375c-0.263-0.376-0.641-0.651-1.137-0.823c-0.495-0.172-1.569-0.258-3.224-0.258H55.447z"/>
		<path fill="#010101" d="M69.226,27.598c0-1.833,0.274-3.373,0.823-4.618c0.409-0.917,0.968-1.739,1.676-2.468
			c0.708-0.729,1.484-1.269,2.327-1.621c1.122-0.475,2.416-0.712,3.881-0.712c2.653,0,4.775,0.823,6.368,2.469
			c1.592,1.646,2.389,3.934,2.389,6.865c0,2.907-0.79,5.181-2.37,6.822s-3.692,2.462-6.337,2.462c-2.678,0-4.807-0.817-6.387-2.45
			S69.226,30.463,69.226,27.598z M72.972,27.475c0,2.039,0.471,3.584,1.412,4.636c0.941,1.052,2.137,1.578,3.586,1.578
			s2.639-0.521,3.567-1.565c0.93-1.044,1.395-2.61,1.395-4.698c0-2.063-0.453-3.602-1.357-4.618
			c-0.904-1.015-2.106-1.522-3.604-1.522s-2.706,0.514-3.623,1.541S72.972,25.404,72.972,27.475z"/>
		<path fill="#010101" d="M101.047,29.87l3.524,1.118c-0.54,1.965-1.438,3.424-2.695,4.378c-1.257,0.954-2.852,1.431-4.784,1.431
			c-2.391,0-4.355-0.817-5.895-2.45s-2.309-3.866-2.309-6.699c0-2.997,0.773-5.324,2.321-6.982c1.547-1.658,3.581-2.487,6.104-2.487
			c2.202,0,3.991,0.651,5.366,1.953c0.819,0.77,1.433,1.875,1.843,3.316l-3.599,0.86c-0.213-0.934-0.657-1.67-1.332-2.21
			c-0.676-0.541-1.497-0.811-2.463-0.811c-1.334,0-2.417,0.479-3.248,1.437s-1.247,2.51-1.247,4.655c0,2.276,0.41,3.897,1.229,4.863
			c0.818,0.966,1.883,1.449,3.193,1.449c0.966,0,1.797-0.307,2.493-0.921C100.244,32.154,100.744,31.188,101.047,29.87z"/>
		<path fill="#010101" d="M106.77,30.631l3.536-0.344c0.213,1.187,0.646,2.059,1.296,2.616c0.651,0.557,1.529,0.835,2.635,0.835
			c1.17,0,2.053-0.248,2.646-0.743c0.593-0.495,0.89-1.074,0.89-1.738c0-0.425-0.124-0.788-0.374-1.086s-0.686-0.559-1.308-0.78
			c-0.426-0.147-1.396-0.409-2.911-0.786c-1.948-0.483-3.315-1.077-4.102-1.781c-1.105-0.991-1.658-2.198-1.658-3.623
			c0-0.917,0.26-1.774,0.78-2.573c0.52-0.798,1.269-1.406,2.247-1.824s2.159-0.626,3.543-0.626c2.26,0,3.961,0.496,5.103,1.486
			c1.143,0.991,1.742,2.313,1.8,3.966l-3.636,0.16c-0.155-0.925-0.489-1.59-1.001-1.996s-1.279-0.608-2.303-0.608
			c-1.056,0-1.883,0.217-2.48,0.651c-0.385,0.279-0.577,0.651-0.577,1.118c0,0.426,0.18,0.79,0.54,1.093
			c0.459,0.385,1.572,0.786,3.341,1.203c1.769,0.418,3.076,0.85,3.924,1.296s1.511,1.056,1.989,1.83
			c0.479,0.774,0.719,1.73,0.719,2.868c0,1.032-0.287,1.998-0.859,2.898c-0.573,0.901-1.384,1.57-2.432,2.008
			c-1.049,0.438-2.354,0.657-3.918,0.657c-2.276,0-4.024-0.526-5.244-1.578C107.735,34.179,107.007,32.646,106.77,30.631z"/>
	</g>
	<g>
		<path d="M6.009,50.672v4.835h-0.57v-4.835H3.892v-0.511h3.664v0.511H6.009z"/>
		<path d="M10.817,55.507v-2.282c0-0.653-0.338-0.976-0.901-0.976s-0.923,0.322-0.923,0.976v2.282H8.452v-5.346h0.541v2.058
			c0.27-0.301,0.616-0.45,1.036-0.45c0.841,0,1.329,0.532,1.329,1.366v2.372H10.817z"/>
		<path d="M13.005,53.803c0,0.811,0.375,1.276,1.088,1.276c0.428,0,0.676-0.128,0.968-0.421l0.368,0.323
			c-0.375,0.375-0.729,0.57-1.352,0.57c-0.983,0-1.614-0.586-1.614-1.892c0-1.201,0.578-1.892,1.516-1.892
			c0.961,0,1.517,0.683,1.517,1.794v0.24H13.005z M14.844,52.781c-0.157-0.337-0.465-0.555-0.863-0.555
			c-0.397,0-0.706,0.218-0.863,0.555c-0.09,0.195-0.098,0.315-0.112,0.616h1.959C14.941,53.097,14.934,52.977,14.844,52.781z"/>
		<path d="M20.882,55.132c-0.255,0.263-0.608,0.42-1.059,0.42c-0.45,0-0.803-0.157-1.059-0.42c-0.375-0.383-0.45-0.901-0.45-1.472
			s0.075-1.097,0.45-1.472c0.255-0.263,0.608-0.42,1.059-0.42c0.451,0,0.804,0.157,1.059,0.42c0.375,0.375,0.451,0.901,0.451,1.472
			S21.257,54.749,20.882,55.132z M20.499,52.519c-0.18-0.18-0.413-0.27-0.676-0.27s-0.488,0.09-0.668,0.27
			c-0.271,0.271-0.3,0.721-0.3,1.142c0,0.413,0.022,0.863,0.3,1.141c0.18,0.181,0.405,0.271,0.668,0.271s0.496-0.09,0.676-0.271
			c0.271-0.277,0.293-0.728,0.293-1.141C20.792,53.239,20.77,52.789,20.499,52.519z"/>
		<path d="M24.97,55.229c-0.195,0.194-0.519,0.322-0.901,0.322c-0.405,0-0.735-0.098-1.043-0.48v2.087h-0.541v-5.345h0.541v0.436
			c0.308-0.383,0.63-0.48,1.043-0.48c0.383,0,0.706,0.127,0.901,0.322c0.368,0.368,0.45,0.977,0.45,1.569
			S25.338,54.854,24.97,55.229z M23.956,52.249c-0.811,0-0.931,0.69-0.931,1.411s0.12,1.411,0.931,1.411
			c0.804,0,0.924-0.69,0.924-1.411S24.76,52.249,23.956,52.249z"/>
		<path d="M26.91,53.803c0,0.811,0.375,1.276,1.088,1.276c0.429,0,0.676-0.128,0.969-0.421l0.368,0.323
			c-0.376,0.375-0.729,0.57-1.352,0.57c-0.983,0-1.614-0.586-1.614-1.892c0-1.201,0.578-1.892,1.517-1.892
			c0.961,0,1.517,0.683,1.517,1.794v0.24H26.91z M28.749,52.781c-0.157-0.337-0.465-0.555-0.863-0.555
			c-0.397,0-0.705,0.218-0.863,0.555c-0.09,0.195-0.098,0.315-0.112,0.616h1.959C28.847,53.097,28.84,52.977,28.749,52.781z"/>
		<path d="M32.911,55.507v-2.274c0-0.653-0.353-0.983-0.908-0.983s-0.916,0.338-0.916,0.983v2.274h-0.54v-3.693h0.54v0.405
			c0.263-0.301,0.623-0.45,1.036-0.45c0.398,0,0.721,0.12,0.946,0.345c0.263,0.256,0.383,0.601,0.383,1.028v2.365H32.911z"/>
		<path d="M34.656,53.735v-0.503h2.058v0.503H34.656z"/>
		<path d="M39.12,55.552c-0.63,0-1.118-0.143-1.516-0.533l0.36-0.36c0.285,0.301,0.69,0.429,1.148,0.429
			c0.615,0,0.983-0.218,0.983-0.653c0-0.331-0.181-0.503-0.616-0.541l-0.607-0.053c-0.721-0.06-1.104-0.375-1.104-0.99
			c0-0.676,0.563-1.081,1.358-1.081c0.533,0,0.991,0.127,1.329,0.397l-0.354,0.353c-0.263-0.202-0.6-0.292-0.983-0.292
			c-0.54,0-0.825,0.225-0.825,0.607c0,0.331,0.202,0.496,0.66,0.541l0.578,0.053c0.646,0.06,1.089,0.3,1.089,0.998
			C40.622,55.139,40.021,55.552,39.12,55.552z"/>
		<path d="M44.049,55.132c-0.255,0.263-0.608,0.42-1.059,0.42s-0.803-0.157-1.059-0.42c-0.375-0.383-0.45-0.901-0.45-1.472
			s0.075-1.097,0.45-1.472c0.256-0.263,0.608-0.42,1.059-0.42s0.804,0.157,1.059,0.42c0.375,0.375,0.45,0.901,0.45,1.472
			S44.424,54.749,44.049,55.132z M43.666,52.519c-0.18-0.18-0.413-0.27-0.676-0.27s-0.488,0.09-0.668,0.27
			c-0.271,0.271-0.301,0.721-0.301,1.142c0,0.413,0.023,0.863,0.301,1.141c0.18,0.181,0.405,0.271,0.668,0.271
			s0.496-0.09,0.676-0.271c0.271-0.277,0.293-0.728,0.293-1.141C43.959,53.239,43.937,52.789,43.666,52.519z"/>
		<path d="M47.986,55.507v-0.413c-0.263,0.301-0.631,0.458-1.044,0.458c-0.397,0-0.729-0.12-0.953-0.346
			c-0.263-0.255-0.376-0.607-0.376-1.035v-2.357h0.541v2.274c0,0.653,0.346,0.983,0.9,0.983c0.556,0,0.924-0.338,0.924-0.983v-2.274
			h0.541v3.693H47.986z"/>
		<path d="M51.931,52.519c-0.203-0.202-0.353-0.27-0.638-0.27c-0.541,0-0.887,0.428-0.887,0.99v2.268h-0.54v-3.693h0.54v0.45
			c0.203-0.308,0.608-0.495,1.036-0.495c0.354,0,0.623,0.082,0.886,0.345L51.931,52.519z"/>
		<path d="M54.232,55.552c-0.931,0-1.637-0.631-1.637-1.892c0-1.262,0.706-1.892,1.637-1.892c0.511,0,0.834,0.135,1.217,0.548
			l-0.368,0.345c-0.278-0.308-0.495-0.412-0.849-0.412c-0.36,0-0.66,0.143-0.855,0.42c-0.173,0.24-0.24,0.525-0.24,0.991
			s0.067,0.751,0.24,0.991c0.195,0.277,0.495,0.42,0.855,0.42c0.354,0,0.57-0.112,0.849-0.42l0.368,0.353
			C55.066,55.417,54.743,55.552,54.232,55.552z"/>
		<path d="M56.698,53.803c0,0.811,0.375,1.276,1.089,1.276c0.428,0,0.675-0.128,0.968-0.421l0.368,0.323
			c-0.375,0.375-0.729,0.57-1.352,0.57c-0.983,0-1.614-0.586-1.614-1.892c0-1.201,0.578-1.892,1.517-1.892
			c0.961,0,1.517,0.683,1.517,1.794v0.24H56.698z M58.537,52.781c-0.157-0.337-0.465-0.555-0.863-0.555
			c-0.397,0-0.705,0.218-0.863,0.555c-0.09,0.195-0.098,0.315-0.112,0.616h1.959C58.635,53.097,58.627,52.977,58.537,52.781z"/>
		<path d="M60.32,56.588v-1.741h0.66v1.148L60.32,56.588z"/>
		<path d="M64.52,53.803c0,0.811,0.375,1.276,1.088,1.276c0.429,0,0.676-0.128,0.969-0.421l0.368,0.323
			c-0.376,0.375-0.729,0.57-1.352,0.57c-0.983,0-1.614-0.586-1.614-1.892c0-1.201,0.578-1.892,1.517-1.892
			c0.961,0,1.517,0.683,1.517,1.794v0.24H64.52z M66.358,52.781c-0.157-0.337-0.465-0.555-0.863-0.555
			c-0.397,0-0.705,0.218-0.863,0.555c-0.09,0.195-0.098,0.315-0.112,0.616h1.959C66.456,53.097,66.449,52.977,66.358,52.781z"/>
		<path d="M70.019,55.507l-0.886-1.434l-0.9,1.434h-0.653l1.253-1.885l-1.201-1.809h0.653l0.849,1.366l0.833-1.366h0.653
			l-1.201,1.809l1.254,1.885H70.019z"/>
		<path d="M72.628,55.507c-0.631,0-0.946-0.443-0.946-0.991v-2.289h-0.465v-0.413h0.465V50.68h0.541v1.134h0.788v0.413h-0.788v2.274
			c0,0.338,0.157,0.54,0.503,0.54h0.285v0.466H72.628z"/>
		<path d="M74.383,53.803c0,0.811,0.375,1.276,1.088,1.276c0.429,0,0.676-0.128,0.969-0.421l0.368,0.323
			c-0.376,0.375-0.729,0.57-1.352,0.57c-0.983,0-1.614-0.586-1.614-1.892c0-1.201,0.578-1.892,1.517-1.892
			c0.961,0,1.517,0.683,1.517,1.794v0.24H74.383z M76.222,52.781c-0.157-0.337-0.465-0.555-0.863-0.555
			c-0.397,0-0.705,0.218-0.863,0.555c-0.09,0.195-0.098,0.315-0.112,0.616h1.959C76.319,53.097,76.313,52.977,76.222,52.781z"/>
		<path d="M80.384,55.507v-2.274c0-0.653-0.353-0.983-0.908-0.983s-0.916,0.338-0.916,0.983v2.274h-0.54v-3.693h0.54v0.405
			c0.263-0.301,0.623-0.45,1.036-0.45c0.398,0,0.721,0.12,0.946,0.345c0.263,0.256,0.383,0.601,0.383,1.028v2.365H80.384z"/>
		<path d="M83.397,55.552c-0.63,0-1.118-0.143-1.516-0.533l0.36-0.36c0.285,0.301,0.69,0.429,1.148,0.429
			c0.615,0,0.983-0.218,0.983-0.653c0-0.331-0.181-0.503-0.616-0.541L83.15,53.84c-0.721-0.06-1.104-0.375-1.104-0.99
			c0-0.676,0.563-1.081,1.358-1.081c0.533,0,0.991,0.127,1.329,0.397l-0.354,0.353c-0.263-0.202-0.6-0.292-0.983-0.292
			c-0.54,0-0.825,0.225-0.825,0.607c0,0.331,0.202,0.496,0.66,0.541l0.578,0.053c0.646,0.06,1.089,0.3,1.089,0.998
			C84.899,55.139,84.299,55.552,83.397,55.552z"/>
		<path d="M85.924,50.763v-0.608h0.608v0.608H85.924z M85.954,55.507v-3.693h0.54v3.693H85.954z"/>
		<path d="M90.328,55.229c-0.194,0.194-0.518,0.322-0.9,0.322c-0.413,0-0.735-0.098-1.044-0.488v0.443h-0.54v-5.346h0.54v2.08
			c0.309-0.383,0.639-0.473,1.044-0.473c0.383,0,0.706,0.127,0.9,0.322c0.368,0.368,0.451,0.977,0.451,1.569
			S90.696,54.854,90.328,55.229z M89.315,52.249c-0.812,0-0.932,0.69-0.932,1.411s0.12,1.411,0.932,1.411
			c0.803,0,0.923-0.69,0.923-1.411S90.118,52.249,89.315,52.249z"/>
		<path d="M92.854,55.507c-0.646,0-0.938-0.42-0.938-0.983v-4.362h0.541v4.34c0,0.36,0.12,0.54,0.495,0.54h0.293v0.466H92.854z"/>
		<path d="M94.399,53.803c0,0.811,0.375,1.276,1.089,1.276c0.428,0,0.675-0.128,0.968-0.421l0.368,0.323
			c-0.375,0.375-0.729,0.57-1.352,0.57c-0.983,0-1.614-0.586-1.614-1.892c0-1.201,0.578-1.892,1.517-1.892
			c0.961,0,1.517,0.683,1.517,1.794v0.24H94.399z M96.238,52.781c-0.157-0.337-0.465-0.555-0.863-0.555
			c-0.397,0-0.705,0.218-0.863,0.555c-0.09,0.195-0.098,0.315-0.112,0.616h1.959C96.336,53.097,96.328,52.977,96.238,52.781z"/>
		<path d="M102.388,55.229c-0.194,0.194-0.518,0.322-0.9,0.322c-0.405,0-0.735-0.098-1.044-0.48v2.087h-0.54v-5.345h0.54v0.436
			c0.309-0.383,0.631-0.48,1.044-0.48c0.383,0,0.706,0.127,0.9,0.322c0.368,0.368,0.451,0.977,0.451,1.569
			S102.756,54.854,102.388,55.229z M101.375,52.249c-0.812,0-0.932,0.69-0.932,1.411s0.12,1.411,0.932,1.411
			c0.803,0,0.923-0.69,0.923-1.411S102.178,52.249,101.375,52.249z"/>
		<path d="M106.326,55.507v-0.413c-0.263,0.301-0.631,0.458-1.044,0.458c-0.397,0-0.729-0.12-0.953-0.346
			c-0.263-0.255-0.376-0.607-0.376-1.035v-2.357h0.541v2.274c0,0.653,0.346,0.983,0.9,0.983c0.556,0,0.924-0.338,0.924-0.983v-2.274
			h0.541v3.693H106.326z"/>
		<path d="M107.905,55.507v-0.466l2.058-2.747h-1.944v-0.48h2.567v0.458l-2.064,2.755h2.064v0.48H107.905z"/>
		<path d="M111.348,55.507v-0.466l2.058-2.747h-1.944v-0.48h2.567v0.458l-2.064,2.755h2.064v0.48H111.348z"/>
		<path d="M116.014,55.507c-0.646,0-0.938-0.42-0.938-0.983v-4.362h0.54v4.34c0,0.36,0.12,0.54,0.495,0.54h0.293v0.466H116.014z"/>
		<path d="M117.559,53.803c0,0.811,0.375,1.276,1.088,1.276c0.429,0,0.676-0.128,0.969-0.421l0.368,0.323
			c-0.376,0.375-0.729,0.57-1.352,0.57c-0.983,0-1.614-0.586-1.614-1.892c0-1.201,0.578-1.892,1.517-1.892
			c0.961,0,1.517,0.683,1.517,1.794v0.24H117.559z M119.397,52.781c-0.157-0.337-0.465-0.555-0.863-0.555
			c-0.397,0-0.705,0.218-0.863,0.555c-0.09,0.195-0.098,0.315-0.112,0.616h1.959C119.495,53.097,119.488,52.977,119.397,52.781z"/>
		<path d="M125.547,55.229c-0.194,0.194-0.518,0.322-0.9,0.322c-0.413,0-0.735-0.098-1.044-0.488v0.443h-0.54v-5.346h0.54v2.08
			c0.309-0.383,0.639-0.473,1.044-0.473c0.383,0,0.706,0.127,0.9,0.322c0.368,0.368,0.451,0.977,0.451,1.569
			S125.915,54.854,125.547,55.229z M124.534,52.249c-0.812,0-0.932,0.69-0.932,1.411s0.12,1.411,0.932,1.411
			c0.803,0,0.923-0.69,0.923-1.411S125.337,52.249,124.534,52.249z"/>
		<path d="M129.522,55.132c-0.255,0.263-0.608,0.42-1.059,0.42s-0.803-0.157-1.059-0.42c-0.375-0.383-0.45-0.901-0.45-1.472
			s0.075-1.097,0.45-1.472c0.256-0.263,0.608-0.42,1.059-0.42s0.804,0.157,1.059,0.42c0.376,0.375,0.45,0.901,0.45,1.472
			S129.898,54.749,129.522,55.132z M129.14,52.519c-0.18-0.18-0.413-0.27-0.676-0.27s-0.487,0.09-0.668,0.27
			c-0.271,0.271-0.3,0.721-0.3,1.142c0,0.413,0.022,0.863,0.3,1.141c0.181,0.181,0.405,0.271,0.668,0.271s0.496-0.09,0.676-0.271
			c0.271-0.277,0.293-0.728,0.293-1.141C129.433,53.239,129.41,52.789,129.14,52.519z"/>
		<path d="M132.987,55.507l-0.886-1.434l-0.9,1.434h-0.653l1.253-1.885l-1.201-1.809h0.653l0.849,1.366l0.833-1.366h0.653
			l-1.201,1.809l1.254,1.885H132.987z"/>
	</g>
</g>
</svg>
