<?xml version="1.0" encoding="UTF-8" standalone="no"?>
<!-- Generator: Adobe Illustrator 16.0.3, SVG Export Plug-In . SVG Version: 6.00 Build 0)  -->

<svg
   xmlns:dc="http://purl.org/dc/elements/1.1/"
   xmlns:cc="http://creativecommons.org/ns#"
   xmlns:rdf="http://www.w3.org/1999/02/22-rdf-syntax-ns#"
   xmlns:svg="http://www.w3.org/2000/svg"
   xmlns="http://www.w3.org/2000/svg"
   xmlns:sodipodi="http://sodipodi.sourceforge.net/DTD/sodipodi-0.dtd"
   xmlns:inkscape="http://www.inkscape.org/namespaces/inkscape"
   version="1.1"
   id="Layer_1"
   x="0px"
   y="0px"
   width="300"
   height="200"
   viewBox="0 0 300 200"
   enable-background="new 0 0 612 792"
   xml:space="preserve"
   sodipodi:docname="modular.svg"
   inkscape:version="0.92.2 (unknown)"><metadata
     id="metadata15"><rdf:RDF><cc:Work
         rdf:about=""><dc:format>image/svg+xml</dc:format><dc:type
           rdf:resource="http://purl.org/dc/dcmitype/StillImage" /><dc:title></dc:title></cc:Work></rdf:RDF></metadata><defs
     id="defs13" /><sodipodi:namedview
     pagecolor="#ffffff"
     bordercolor="#666666"
     borderopacity="1"
     objecttolerance="10"
     gridtolerance="10"
     guidetolerance="10"
     inkscape:pageopacity="0"
     inkscape:pageshadow="2"
     inkscape:window-width="3775"
     inkscape:window-height="2136"
     id="namedview11"
     showgrid="false"
     inkscape:zoom="2.5126263"
     inkscape:cx="327.19187"
     inkscape:cy="396"
     inkscape:window-x="65"
     inkscape:window-y="24"
     inkscape:window-maximized="1"
     inkscape:current-layer="Layer_1" /><path
     d="m 174.05708,160.4245 c -0.79395,-14.02347 -1.60246,-28.27763 -2.44792,-43.188 -2.48712,-0.22397 -5.92384,-0.70437 -9.37176,-0.80291 -4.18587,-0.11758 -4.06829,3.44232 -4.09405,5.98206 -0.0941,9.12316 0.0829,18.25527 0.39082,27.37506 0.13774,4.08398 0.82642,8.14892 1.35946,13.08507 -14.40758,0.44457 -28.67629,1.41321 -42.91925,1.11086 -7.5319,-0.16013 -8.02798,-2.12317 -6.35273,-9.64387 1.01008,-4.53638 1.72452,-9.15115 2.29899,-13.76367 0.21948,-1.76148 0.1187,-3.81746 -0.59463,-5.39529 -2.6786,-5.92495 -10.18362,-8.30232 -19.111918,-6.34824 -7.94175,1.73907 -10.18026,4.18028 -10.16011,12.11195 0.0123,4.82081 0.20157,9.73457 1.16797,14.4322 1.08399,5.26763 -0.97424,8.05709 -5.71555,8.88128 -5.47255,0.95072 -11.07163,1.87233 -16.58562,1.72116 -8.89247,-0.24412 -17.760303,-1.37626 -27.132056,-2.17357 0.969762,-6.47366 2.109736,-12.25976 2.636051,-18.10185 0.534153,-5.92831 0.847701,-11.92942 0.565507,-17.86669 -0.431129,-9.075 -5.58341,-13.02908 -14.532992,-11.77936 -3.689799,0.51512 -7.349363,1.29899 -11.05036,1.67861 -6.6629146,0.68308 -10.5184466,-1.86674 -11.7424076,-8.35048 -0.714443,-3.78611 -0.884656,-7.84993 -0.354982,-11.656188 0.926089,-6.66067 6.907035,-10.318 14.7256006,-9.66514 3.714435,0.30907 7.422152,0.86898 11.139946,0.9496 7.012298,0.1523 11.142185,-2.29898 11.805117,-9.15898 0.811868,-8.40759 0.07503,-16.99884 -0.43225,-25.48369 -0.264276,-4.40537 -1.479279,-8.7525 -2.463598,-14.23624 7.217224,-1.36954 14.188084,-3.17245 21.270934,-3.89137 6.38856,-0.64726 13.00556,-0.83203 19.32581,0.10414 7.06941,1.04815 8.87232,5.04702 7.75922,12.06156 -0.84434,5.32249 -0.89809,10.76368 -1.57446,16.11977 -0.55767,4.40648 1.59238,6.93615 5.10076,8.95966 6.82641,3.93616 14.001078,4.08062 20.948428,1.08063 2.28219,-0.98544 4.77379,-4.19036 5.0291,-6.60693 0.55655,-5.26762 0.29899,-10.78048 -0.63269,-16.01451 -2.0112,-11.30792 1.95296,-17.3303 13.44901,-17.05482 10.70321,0.25644 21.36948,2.05934 31.70539,3.14557 -0.88017,11.84543 -1.70996,22.75245 -2.48487,33.66507 -0.13214,1.85442 -0.19709,3.74579 -0.002,5.58901 0.80515,7.63492 4.64388,10.86223 12.35047,10.33144 2.21164,-0.15341 4.39304,-0.72788 6.59572,-1.11086 -7.53861,-16.08506 -3.02127,-31.98647 -0.79731,-48.28989 8.39527,1.45576 16.00779,3.159 23.7155,3.97759 5.10973,0.54199 10.44006,0.35386 15.51507,-0.47032 7.50726,-1.21949 9.44006,-4.90145 8.01566,-12.39974 -0.89474,-4.70772 -2.0168,-9.53413 -1.81971,-14.255279 0.38298,-9.1018804 6.76482,-13.9652504 16.82078,-13.7446404 7.59796,0.16685 13.24856,5.79953 13.35047,14.2160804 0.0549,4.589009 -1.05151,9.208259 -1.80627,13.784959 -1.32138,8.03917 1.07727,12.64386 9.01117,12.58563 12.39526,-0.0896 24.77933,-1.8701 37.16563,-2.94513 0.71108,-0.0627 1.41321,-0.22732 3.68308,-0.6047 1.16573,13.5386 2.92496,26.77708 3.21724,40.04804 0.17469,7.96414 -5.98991,11.60467 -14.01788,10.01453 -3.83426,-0.76036 -7.64947,-1.6103 -11.49381,-2.31466 -5.47031,-1.00336 -9.40647,1.21612 -12.09515,5.94959 -6.58789,11.593468 -1.49384,24.734528 10.15787,25.377298 3.95631,0.21725 8.03693,-1.23628 12.01564,-2.12205 8.56884,-1.90705 13.66961,1.61366 14.76703,10.37063 0.18589,1.47704 0.45465,2.98879 0.33483,4.45575 -0.90369,10.95406 -1.89585,21.9014 -2.80962,32.27763 -12.18586,-0.91601 -24.13543,-2.28891 -36.11076,-2.58006 -12.00221,-0.29116 -14.29335,2.88353 -12.83199,14.87901 0.44793,3.69204 1.03247,7.41991 0.93393,11.11531 -0.19037,7.13324 -5.11421,12.32807 -11.58564,12.7872 -7.51733,0.53527 -14.37845,-3.90144 -15.35605,-10.86895 -0.71557,-5.09181 -0.11311,-10.37175 -0.0661,-15.56658 0.0963,-10.30345 -1.31691,-12.59907 -11.53748,-12.89358 -11.66962,-0.33931 -23.37956,0.66181 -36.24402,1.12429 z m 14.22728,-42.81286 c 8.67747,1.06382 15.69537,-0.23069 19.73679,-8.16123 3.00335,-5.89584 1.61029,-15.681928 -2.75139,-20.560978 -4.02911,-4.50838 -11.59124,-5.81073 -18.44228,-3.1758 13.65506,5.74467 13.66401,23.108558 1.45688,31.898008 z"
     id="path4"
     inkscape:connector-curvature="0"
     style="clip-rule:evenodd;fill-rule:evenodd;stroke-width:0.99999994;fill:#ffffff;fill-opacity:1" /></svg>