<?xml version="1.0" encoding="UTF-8" standalone="no"?>
<!-- Created with Inkscape (http://www.inkscape.org/) -->

<svg
   xmlns:dc="http://purl.org/dc/elements/1.1/"
   xmlns:cc="http://creativecommons.org/ns#"
   xmlns:rdf="http://www.w3.org/1999/02/22-rdf-syntax-ns#"
   xmlns:svg="http://www.w3.org/2000/svg"
   xmlns="http://www.w3.org/2000/svg"
   xmlns:sodipodi="http://sodipodi.sourceforge.net/DTD/sodipodi-0.dtd"
   xmlns:inkscape="http://www.inkscape.org/namespaces/inkscape"
   width="163.27901"
   height="100"
   viewBox="0 0 43.200903 26.458333"
   version="1.1"
   id="svg2699"
   sodipodi:docname="node-logo.svg"
   inkscape:version="0.92.2 (unknown)">
  <defs
     id="defs2693">
    <clipPath
       clipPathUnits="userSpaceOnUse"
       id="clipPath920">
      <path
         d="m 692.448,192.808 -12.441,-7.18 c -0.466,-0.269 -0.752,-0.764 -0.752,-1.302 v 0 -14.37 c 0,-0.537 0.286,-1.032 0.75,-1.302 v 0 l 12.443,-7.184 c 0.464,-0.269 1.037,-0.269 1.502,0 v 0 l 12.439,7.184 c 0.464,0.27 0.75,0.765 0.75,1.302 v 0 14.371 c 0,0.537 -0.286,1.032 -0.75,1.301 v 0 l -12.439,7.18 c -0.232,0.134 -0.492,0.201 -0.751,0.201 v 0 c -0.26,0 -0.519,-0.067 -0.751,-0.201"
         id="path918"
         inkscape:connector-curvature="0" />
    </clipPath>
  </defs>
  <sodipodi:namedview
     id="base"
     pagecolor="#ffffff"
     bordercolor="#666666"
     borderopacity="1.0"
     inkscape:pageopacity="0.0"
     inkscape:pageshadow="2"
     inkscape:zoom="9.2933349"
     inkscape:cx="151.56023"
     inkscape:cy="50"
     inkscape:document-units="mm"
     inkscape:current-layer="layer1"
     showgrid="false"
     units="px"
     inkscape:window-width="3775"
     inkscape:window-height="2136"
     inkscape:window-x="65"
     inkscape:window-y="24"
     inkscape:window-maximized="1" />
  <metadata
     id="metadata2696">
    <rdf:RDF>
      <cc:Work
         rdf:about="">
        <dc:format>image/svg+xml</dc:format>
        <dc:type
           rdf:resource="http://purl.org/dc/dcmitype/StillImage" />
        <dc:title />
      </cc:Work>
    </rdf:RDF>
  </metadata>
  <g
     inkscape:label="Layer 1"
     inkscape:groupmode="layer"
     id="layer1"
     transform="translate(0,-270.54167)">
    <g
       transform="matrix(0.3307284,0,0,-0.3307284,-213.31601,340.42104)"
       id="g2661"
       style="fill:#056c8c;fill-opacity:1">
      <g
         transform="translate(709.5508,131.2891)"
         id="g882"
         style="fill:#056c8c;fill-opacity:1">
        <path
           inkscape:connector-curvature="0"
           id="path884"
           style="fill:#056c8c;fill-opacity:1;fill-rule:nonzero;stroke:none"
           d="m 0,0 c -0.431,0 -0.86,0.112 -1.237,0.331 l -3.939,2.33 c -0.588,0.329 -0.301,0.446 -0.106,0.514 0.784,0.272 0.943,0.335 1.78,0.809 0.087,0.05 0.203,0.031 0.293,-0.022 l 3.025,-1.796 c 0.111,-0.061 0.265,-0.061 0.367,0 l 11.796,6.809 c 0.109,0.062 0.18,0.188 0.18,0.319 v 13.613 c 0,0.133 -0.071,0.258 -0.183,0.325 L 0.185,30.035 c -0.11,0.064 -0.254,0.064 -0.365,0 L -11.968,23.23 c -0.115,-0.065 -0.187,-0.194 -0.187,-0.323 V 9.294 c 0,-0.131 0.072,-0.254 0.186,-0.315 l 3.232,-1.868 c 1.753,-0.877 2.827,0.157 2.827,1.194 v 13.44 c 0,0.191 0.152,0.34 0.343,0.34 h 1.495 c 0.187,0 0.342,-0.149 0.342,-0.34 V 8.305 c 0,-2.34 -1.275,-3.683 -3.493,-3.683 -0.682,0 -1.218,0 -2.717,0.739 l -3.093,1.781 c -0.765,0.442 -1.238,1.267 -1.238,2.152 v 13.613 c 0,0.885 0.473,1.71 1.238,2.151 l 11.796,6.816 c 0.746,0.422 1.739,0.422 2.479,0 l 11.795,-6.816 c 0.765,-0.443 1.239,-1.266 1.239,-2.151 V 9.294 c 0,-0.885 -0.474,-1.707 -1.239,-2.152 L 1.242,0.331 C 0.865,0.112 0.437,0 0,0" />
      </g>
      <g
         transform="translate(713.1943,140.668)"
         id="g886"
         style="fill:#056c8c;fill-opacity:1">
        <path
           inkscape:connector-curvature="0"
           id="path888"
           style="fill:#056c8c;fill-opacity:1;fill-rule:nonzero;stroke:none"
           d="m 0,0 c -5.162,0 -6.243,2.369 -6.243,4.357 0,0.189 0.151,0.34 0.341,0.34 h 1.525 c 0.17,0 0.313,-0.123 0.339,-0.289 C -3.809,2.855 -3.121,2.072 0,2.072 c 2.485,0 3.543,0.562 3.543,1.88 0,0.761 -0.3,1.324 -4.162,1.703 -3.228,0.32 -5.224,1.032 -5.224,3.615 0,2.379 2.006,3.799 5.37,3.799 3.779,0 5.649,-1.311 5.886,-4.126 C 5.422,8.847 5.388,8.753 5.323,8.681 5.259,8.613 5.168,8.572 5.073,8.572 H 3.542 c -0.158,0 -0.299,0.113 -0.331,0.267 -0.367,1.634 -1.261,2.155 -3.684,2.155 -2.714,0 -3.029,-0.945 -3.029,-1.653 0,-0.859 0.373,-1.108 4.036,-1.593 C 4.159,7.27 5.881,6.591 5.881,4.043 5.881,1.473 3.738,0 0,0" />
      </g>
      <g
         transform="translate(727.5586,155.1016)"
         id="g890"
         style="fill:#056c8c;fill-opacity:1">
        <path
           inkscape:connector-curvature="0"
           id="path892"
           style="fill:#056c8c;fill-opacity:1;fill-rule:nonzero;stroke:none"
           d="M 0,0 H 0.396 C 0.721,0 0.782,0.229 0.782,0.361 0.782,0.71 0.541,0.71 0.408,0.71 H 0 Z m -0.481,1.119 h 0.877 c 0.301,0 0.891,0 0.891,-0.674 0,-0.469 -0.301,-0.565 -0.481,-0.626 0.349,-0.023 0.373,-0.252 0.421,-0.577 0.024,-0.204 0.06,-0.554 0.131,-0.674 h -0.54 c -0.012,0.12 -0.097,0.771 -0.097,0.806 -0.035,0.145 -0.084,0.217 -0.264,0.217 H 0.012 V -1.432 H -0.481 Z M -1.534,-0.15 c 0,-1.059 0.854,-1.913 1.9,-1.913 1.06,0 1.913,0.873 1.913,1.913 0,1.058 -0.866,1.9 -1.913,1.9 -1.034,0 -1.9,-0.829 -1.9,-1.9 m 4.18,-0.006 c 0,-1.251 -1.023,-2.274 -2.274,-2.274 -1.239,0 -2.273,1.01 -2.273,2.274 0,1.287 1.058,2.273 2.273,2.273 1.228,0 2.274,-0.986 2.274,-2.273" />
      </g>
      <g
         transform="translate(673.0215,184.5518)"
         id="g894"
         style="fill:#056c8c;fill-opacity:1">
        <path
           inkscape:connector-curvature="0"
           id="path896"
           style="fill:#056c8c;fill-opacity:1;fill-rule:evenodd;stroke:none"
           d="M 0,0 C 0,0.543 -0.286,1.043 -0.756,1.312 L -13.262,8.51 c -0.212,0.124 -0.449,0.189 -0.688,0.199 h -0.13 C -14.319,8.699 -14.556,8.634 -14.771,8.51 L -27.277,1.312 C -27.743,1.043 -28.033,0.543 -28.033,0 l 0.027,-19.382 c 0,-0.268 0.14,-0.519 0.377,-0.652 0.233,-0.139 0.52,-0.139 0.75,0 l 7.434,4.257 c 0.469,0.279 0.756,0.771 0.756,1.31 v 9.055 c 0,0.539 0.286,1.039 0.753,1.308 l 3.165,1.822 c 0.237,0.136 0.495,0.203 0.757,0.203 0.258,0 0.523,-0.067 0.752,-0.203 l 3.163,-1.822 c 0.469,-0.269 0.756,-0.769 0.756,-1.308 v -9.055 c 0,-0.539 0.29,-1.035 0.757,-1.31 l 7.431,-4.257 c 0.233,-0.139 0.524,-0.139 0.755,0 0.23,0.133 0.376,0.384 0.376,0.652 z" />
      </g>
      <g
         transform="translate(732.0381,174.46)"
         id="g898"
         style="fill:#056c8c;fill-opacity:1">
        <path
           inkscape:connector-curvature="0"
           id="path900"
           style="fill:#056c8c;fill-opacity:1;fill-rule:evenodd;stroke:none"
           d="m 0,0 c 0,-0.135 -0.072,-0.26 -0.188,-0.327 l -4.296,-2.476 c -0.118,-0.067 -0.261,-0.067 -0.377,0 l -4.296,2.476 C -9.274,-0.26 -9.347,-0.135 -9.347,0 v 4.96 c 0,0.135 0.073,0.26 0.189,0.327 l 4.296,2.482 c 0.117,0.067 0.26,0.067 0.378,0 L -0.188,5.287 C -0.072,5.22 0,5.095 0,4.96 Z M 1.161,36.733 C 0.927,36.864 0.642,36.861 0.41,36.726 0.18,36.59 0.037,36.342 0.037,36.074 V 16.881 c 0,-0.189 -0.1,-0.364 -0.264,-0.458 -0.163,-0.095 -0.365,-0.095 -0.529,0 l -3.132,1.805 c -0.467,0.269 -1.043,0.268 -1.509,-0.001 l -12.512,-7.221 c -0.468,-0.27 -0.756,-0.769 -0.756,-1.308 V -4.746 c 0,-0.54 0.288,-1.038 0.756,-1.309 l 12.511,-7.225 c 0.467,-0.271 1.044,-0.271 1.511,0 l 12.513,7.225 c 0.467,0.271 0.755,0.769 0.755,1.309 V 31.26 c 0,0.547 -0.296,1.052 -0.775,1.319 z" />
      </g>
      <g
         transform="translate(774.8604,179.5498)"
         id="g902"
         style="fill:#056c8c;fill-opacity:1">
        <path
           inkscape:connector-curvature="0"
           id="path904"
           style="fill:#056c8c;fill-opacity:1;fill-rule:evenodd;stroke:none"
           d="m 0,0 c 0.466,0.271 0.752,0.768 0.752,1.307 v 3.5 C 0.752,5.345 0.466,5.843 0,6.113 l -12.432,7.218 c -0.467,0.272 -1.045,0.273 -1.513,0.002 L -26.452,6.112 C -26.92,5.843 -27.208,5.344 -27.208,4.804 v -14.44 c 0,-0.543 0.292,-1.045 0.764,-1.312 l 12.428,-7.083 c 0.459,-0.262 1.021,-0.265 1.482,-0.008 l 7.518,4.179 c 0.239,0.131 0.387,0.382 0.388,0.655 0.002,0.271 -0.143,0.524 -0.379,0.66 l -12.586,7.224 c -0.235,0.134 -0.38,0.384 -0.38,0.655 v 4.525 c 0,0.27 0.144,0.52 0.378,0.655 l 3.917,2.258 c 0.234,0.135 0.522,0.135 0.755,0 l 3.919,-2.258 c 0.234,-0.135 0.378,-0.385 0.378,-0.655 v -3.56 c 0,-0.271 0.145,-0.521 0.379,-0.654 0.233,-0.136 0.522,-0.135 0.756,0.001 z" />
      </g>
      <g
         transform="translate(761.4873,180.2266)"
         id="g906"
         style="fill:#056c8c;fill-opacity:1">
        <path
           inkscape:connector-curvature="0"
           id="path908"
           style="fill:#056c8c;fill-opacity:1;fill-rule:evenodd;stroke:none"
           d="M 0,0 C 0.09,0.052 0.2,0.052 0.29,0 L 2.691,-1.386 C 2.78,-1.437 2.836,-1.533 2.836,-1.637 V -4.409 C 2.836,-4.513 2.78,-4.608 2.691,-4.66 L 0.29,-6.045 C 0.2,-6.097 0.09,-6.097 0,-6.045 l -2.398,1.385 c -0.09,0.052 -0.146,0.147 -0.146,0.251 v 2.772 c 0,0.104 0.056,0.2 0.146,0.251 z" />
      </g>
      <g
         transform="translate(693.9502,192.8076)"
         id="g910"
         style="fill:#056c8c;fill-opacity:1">
        <path
           inkscape:connector-curvature="0"
           id="path912"
           style="fill:#056c8c;fill-opacity:1;fill-rule:evenodd;stroke:none"
           d="m 0,0 c -0.465,0.268 -1.038,0.268 -1.503,0 l -12.44,-7.18 c -0.466,-0.268 -0.752,-0.764 -0.752,-1.301 v -14.371 c 0,-0.537 0.286,-1.032 0.751,-1.301 l 12.441,-7.185 c 0.465,-0.268 1.038,-0.268 1.503,0 l 12.438,7.185 c 0.465,0.269 0.751,0.764 0.751,1.301 V -8.48 c 0,0.536 -0.286,1.032 -0.751,1.3 z" />
      </g>
      <g
         id="g914"
         style="fill:#056c8c;fill-opacity:1">
        <g
           clip-path="url(#clipPath920)"
           id="g916"
           style="fill:#056c8c;fill-opacity:1">
          <g
             transform="translate(692.4219,192.8076)"
             id="g922"
             style="fill:#056c8c;fill-opacity:1">
            <path
               inkscape:connector-curvature="0"
               id="path924"
               style="fill:#056c8c;fill-opacity:1;fill-rule:nonzero;stroke:none"
               d="m 0,0 -12.468,-7.18 c -0.465,-0.268 -0.803,-0.764 -0.803,-1.301 v -14.371 c 0,-0.355 0.152,-0.69 0.387,-0.956 L 1.124,0.155 C 0.748,0.248 0.342,0.197 0,0" />
          </g>
          <g
             transform="translate(693.6152,161.3242)"
             id="g926"
             style="fill:#056c8c;fill-opacity:1">
            <path
               inkscape:connector-curvature="0"
               id="path928"
               style="fill:#056c8c;fill-opacity:1;fill-rule:nonzero;stroke:none"
               d="M 0,0 C 0.122,0.033 0.239,0.081 0.351,0.146 L 12.805,7.33 c 0.465,0.27 0.782,0.765 0.782,1.302 v 14.371 c 0,0.394 -0.177,0.767 -0.454,1.043 z" />
          </g>
          <g
             transform="translate(706.4131,185.6279)"
             id="g930"
             style="fill:#056c8c;fill-opacity:1">
            <path
               inkscape:connector-curvature="0"
               id="path932"
               style="fill:#056c8c;fill-opacity:1;fill-rule:nonzero;stroke:none"
               d="m 0,0 -12.477,7.18 c -0.123,0.07 -0.254,0.122 -0.39,0.155 l -14.008,-23.963 c 0.121,-0.136 0.263,-0.255 0.42,-0.346 l 12.497,-7.184 c 0.354,-0.205 0.774,-0.253 1.16,-0.146 L 0.335,-0.258 C 0.234,-0.158 0.123,-0.071 0,0" />
          </g>
          <g
             transform="translate(707.2021,169.9561)"
             id="g934"
             style="fill:#056c8c;fill-opacity:1">
            <path
               inkscape:connector-curvature="0"
               id="path936"
               style="fill:#056c8c;fill-opacity:1;fill-rule:nonzero;stroke:none"
               d="m 0,0 v 14.371 c 0,0.536 -0.324,1.032 -0.789,1.301 l -12.477,7.18 c -0.142,0.082 -0.297,0.136 -0.458,0.168 L -0.047,-0.346 C -0.018,-0.233 0,-0.118 0,0" />
          </g>
          <g
             transform="translate(679.9541,185.6279)"
             id="g938"
             style="fill:#056c8c;fill-opacity:1">
            <path
               inkscape:connector-curvature="0"
               id="path940"
               style="fill:#056c8c;fill-opacity:1;fill-rule:nonzero;stroke:none"
               d="m 0,0 c -0.465,-0.269 -0.804,-0.765 -0.804,-1.302 v -14.37 c 0,-0.537 0.343,-1.032 0.808,-1.302 l 12.497,-7.184 c 0.294,-0.17 0.634,-0.232 0.962,-0.188 L 0.075,0.043 Z" />
          </g>
          <g
             transform="translate(692.0322,195.4463)"
             id="g942"
             style="fill:#056c8c;fill-opacity:1">
            <path
               inkscape:connector-curvature="0"
               id="path944"
               style="fill:#056c8c;fill-opacity:1;fill-rule:nonzero;stroke:none"
               d="M 0,0 -0.171,-0.098 H 0.058 Z" />
          </g>
          <g
             transform="translate(706.4199,168.6543)"
             id="g946"
             style="fill:#056c8c;fill-opacity:1">
            <path
               inkscape:connector-curvature="0"
               id="path948"
               style="fill:#056c8c;fill-opacity:1;fill-rule:nonzero;stroke:none"
               d="m 0,0 c 0.362,0.21 0.633,0.559 0.735,0.956 l -13.676,23.365 c -0.357,0.072 -0.736,0.018 -1.057,-0.168 l -12.393,-7.136 13.388,-24.389 c 0.19,0.026 0.378,0.088 0.549,0.187 z" />
          </g>
          <g
             transform="translate(707.5801,168.8857)"
             id="g950"
             style="fill:#056c8c;fill-opacity:1">
            <path
               inkscape:connector-curvature="0"
               id="path952"
               style="fill:#056c8c;fill-opacity:1;fill-rule:nonzero;stroke:none"
               d="M 0,0 -0.082,0.141 V -0.048 Z" />
          </g>
          <g
             transform="translate(706.4199,168.6543)"
             id="g954"
             style="fill:#056c8c;fill-opacity:1">
            <path
               inkscape:connector-curvature="0"
               id="path956"
               style="fill:#056c8c;fill-opacity:1;fill-rule:nonzero;stroke:none"
               d="m 0,0 -12.454,-7.185 c -0.171,-0.099 -0.359,-0.161 -0.549,-0.187 l 0.248,-0.451 13.833,8.007 V 0.372 L 0.735,0.956 C 0.633,0.559 0.362,0.21 0,0" />
          </g>
          <g
             transform="translate(706.4199,168.6543)"
             id="g958"
             style="fill:#056c8c;fill-opacity:1">
            <path
               inkscape:connector-curvature="0"
               id="path960"
               style="fill:#056c8c;fill-opacity:1;fill-rule:nonzero;stroke:none"
               d="m 0,0 -12.454,-7.185 c -0.171,-0.099 -0.359,-0.161 -0.549,-0.187 l 0.248,-0.451 13.833,8.007 V 0.372 L 0.735,0.956 C 0.633,0.559 0.362,0.21 0,0" />
          </g>
        </g>
      </g>
    </g>
  </g>
</svg>
