<?xml version="1.0" encoding="UTF-8" standalone="no"?>
<!-- Generator: Adobe Illustrator 16.0.3, SVG Export Plug-In . SVG Version: 6.00 Build 0)  -->

<svg
   xmlns:dc="http://purl.org/dc/elements/1.1/"
   xmlns:cc="http://creativecommons.org/ns#"
   xmlns:rdf="http://www.w3.org/1999/02/22-rdf-syntax-ns#"
   xmlns:svg="http://www.w3.org/2000/svg"
   xmlns="http://www.w3.org/2000/svg"
   xmlns:sodipodi="http://sodipodi.sourceforge.net/DTD/sodipodi-0.dtd"
   xmlns:inkscape="http://www.inkscape.org/namespaces/inkscape"
   version="1.1"
   id="Layer_1"
   x="0px"
   y="0px"
   width="400"
   height="353"
   viewBox="0 0 400 353"
   enable-background="new 0 0 612 792"
   xml:space="preserve"
   sodipodi:docname="opensource.svg"
   inkscape:version="0.92.2 (unknown)"><metadata
     id="metadata21"><rdf:RDF><cc:Work
         rdf:about=""><dc:format>image/svg+xml</dc:format><dc:type
           rdf:resource="http://purl.org/dc/dcmitype/StillImage" /><dc:title></dc:title></cc:Work></rdf:RDF></metadata><defs
     id="defs19" /><sodipodi:namedview
     pagecolor="#ffffff"
     bordercolor="#666666"
     borderopacity="1"
     objecttolerance="10"
     gridtolerance="10"
     guidetolerance="10"
     inkscape:pageopacity="0"
     inkscape:pageshadow="2"
     inkscape:window-width="3775"
     inkscape:window-height="2136"
     id="namedview17"
     showgrid="false"
     inkscape:zoom="2.5126263"
     inkscape:cx="310.37789"
     inkscape:cy="396"
     inkscape:window-x="65"
     inkscape:window-y="24"
     inkscape:window-maximized="1"
     inkscape:current-layer="Layer_1" /><path
     inkscape:connector-curvature="0"
     style="clip-rule:evenodd;fill-rule:evenodd;fill:#ffffff;fill-opacity:1"
     d="m 0.001,171.65487 c 3.321,-9.323 6.768,-18.604 9.938004,-27.979 7.025,-20.773 13.987,-41.568 20.783,-62.417 1.195,-3.665 3.267,-5.829 6.691,-7.404 52.114,-23.976 104.209996,-47.99 156.236986,-72.154 4.489,-2.085 8.212,-2.085 12.703,0 52.025,24.164 104.122,48.179 156.23601,72.153 3.425,1.576 5.485,3.745 6.69,7.405 9.453,28.719 19.082,57.381 28.693,86.048 0.505,1.506 1.345,2.9 2.028,4.348 0,1.667 0,3.333 0,5 -2.063,1.584 -3.917,3.618 -6.22,4.686 -52.36601,24.263 -104.77801,48.427 -157.19101,72.589 -7.13,3.288 -9.769,2.123 -12.267,-5.332 -5.387,-16.074 -10.735,-32.162 -16.113,-48.239 -0.352,-1.048 -0.822,-2.055 -1.775,-4.413 0,48.599 0,95.749 0,143.619 7.741,-3.52 15.12,-6.83 22.463,-10.22 40.926,-18.89 81.824,-37.84 122.79901,-56.624 3.342,-1.532 4.62,-3.256 4.568,-7.027 -0.23,-16.661 -0.1,-33.327 -0.1,-49.991 0,-1 -0.049,-2.003 0.016,-2.999 0.26,-4.02 2.144,-6.809 6.398,-6.79 3.988,0.018 6.159,2.688 6.181,6.468 0.114,20.663 0.096,41.327 0.022,61.99 -0.015,3.942 -2.996,5.563 -6.164,7.023 -47.88701,22.061 -96.02301,43.608 -143.45901,66.604 -13.758,6.67 -24.564,6.667 -38.321,-0.002 -47.43499,-22.994 -95.559986,-44.567 -143.474986,-66.568 -4.335,-1.99 -6.315,-4.685 -6.271,-9.562 0.177,-19.162 0.072,-38.327 0.073,-57.491 0,-0.666 -0.046,-1.338 0.021,-1.998 0.381,-3.778 2.229,-6.415 6.221,-6.472 3.998,-0.056 6.087,2.52 6.347,6.307 0.25,3.649 0.08,7.328 0.081,10.994 0.003,14.331 0.089,28.663 -0.069,42.993 -0.034,3.041 0.727,4.771 3.637,6.107 47.615,21.861 95.178996,43.833 142.762986,65.764 1.007,0.464 2.107,0.724 3.465,1.18 0,-47.518 0,-94.629 0,-143.025 -0.921,2.059 -1.476,3.066 -1.836,4.14 -5.386,16.075 -10.732,32.163 -16.118,48.238 -2.492,7.438 -5.174,8.603 -12.267,5.331 -52.25899,-24.099 -104.521986,-48.188 -156.73599,-72.383 -2.454,-1.137 -4.459,-3.241 -6.673,-4.896 0.001,-1.668 0.001,-3.334 0.001,-5.001 z m 206.16799,-156.141 c 0,2.704 0,4.483 0,6.263 0,32.995 0.002,65.99 -0.003,98.985 -0.001,3.499 0.151,7.013 -0.112,10.493 -0.26,3.433 -2.293,5.463 -5.865,5.534 -3.802,0.075 -5.862,-1.97 -6.287,-5.65 -0.171,-1.481 -0.066,-2.996 -0.066,-4.496 -0.002,-34.994 -0.002,-69.989 -0.002,-104.983 0,-1.756 0,-3.512 0,-6.149 -47.35,21.854 -93.895986,43.337 -141.190986,65.167 1.617,0.844 2.303,1.239 3.019,1.57 47.117996,21.77 94.222986,43.567 141.417986,65.167 1.85,0.847 4.863,0.424 6.844,-0.482 37.824,-17.294 75.576,-34.748 113.341,-52.174 9.746,-4.497 19.485,-9.008 30.28001,-14 -47.54901,-21.944 -94.09901,-43.426 -141.37601,-65.245 z m -192.212986,155.68 c 50.595,23.349 100.628996,46.438 151.075986,69.72 9.164,-27.485 18.144,-54.421 27.272,-81.803 -50.39299,-23.259 -100.564986,-46.416 -151.074986,-69.729 -9.157,27.469 -18.142,54.421 -27.273,81.812 z m 221.013986,69.726 c 50.613,-23.361 100.674,-46.467 151.07301,-69.729 -9.123,-27.364 -18.148,-54.437 -27.275,-81.813 -50.60701,23.362 -100.78301,46.526 -151.07101,69.742 9.162,27.481 18.097,54.28 27.273,81.8 z"
     id="path6" /></svg>