<?xml version="1.0" encoding="UTF-8" standalone="no"?>
<!-- Created with Inkscape (http://www.inkscape.org/) -->

<svg
   xmlns:dc="http://purl.org/dc/elements/1.1/"
   xmlns:cc="http://creativecommons.org/ns#"
   xmlns:rdf="http://www.w3.org/1999/02/22-rdf-syntax-ns#"
   xmlns:svg="http://www.w3.org/2000/svg"
   xmlns="http://www.w3.org/2000/svg"
   xmlns:sodipodi="http://sodipodi.sourceforge.net/DTD/sodipodi-0.dtd"
   xmlns:inkscape="http://www.inkscape.org/namespaces/inkscape"
   version="1.1"
   id="svg2"
   xml:space="preserve"
   width="1000"
   height="367"
   viewBox="0 0 1000 367"
   sodipodi:docname="poe.ai.svg"
   inkscape:version="0.92.2 (unknown)"><metadata
     id="metadata8"><rdf:RDF><cc:Work
         rdf:about=""><dc:format>image/svg+xml</dc:format><dc:type
           rdf:resource="http://purl.org/dc/dcmitype/StillImage" /><dc:title></dc:title></cc:Work></rdf:RDF></metadata><defs
     id="defs6"><clipPath
       clipPathUnits="userSpaceOnUse"
       id="clipPath18"><path
         d="M 0,1008 H 1008 V 0 H 0 Z"
         id="path16"
         inkscape:connector-curvature="0" /></clipPath></defs><sodipodi:namedview
     pagecolor="#ffffff"
     bordercolor="#666666"
     borderopacity="1"
     objecttolerance="10"
     gridtolerance="10"
     guidetolerance="10"
     inkscape:pageopacity="0"
     inkscape:pageshadow="2"
     inkscape:window-width="3775"
     inkscape:window-height="2136"
     id="namedview4"
     showgrid="false"
     inkscape:zoom="1.4806548"
     inkscape:cx="672"
     inkscape:cy="672"
     inkscape:window-x="65"
     inkscape:window-y="24"
     inkscape:window-maximized="1"
     inkscape:current-layer="g10" /><g
     id="g10"
     inkscape:groupmode="layer"
     inkscape:label="tesla_poe"
     transform="matrix(1.3333333,0,0,-1.3333333,0,367)"><g
       id="g12"
       transform="matrix(0.98014221,0,0,0.98014221,-134.77436,-548.22951)"><g
         id="g14"
         clip-path="url(#clipPath18)"><g
           id="g20"
           transform="translate(213.5049,710.5371)"><path
             d="m 0,0 h 14.8 24.4 c 10.4,0.262 18.063,2.662 23,7.2 4.931,4.531 8.331,9.062 10.2,13.6 1.863,4.531 2.8,9.6 2.8,15.2 v 0.4 c -0.537,12.531 -5.2,21.462 -14,26.8 -6.137,3.731 -14,6 -23.6,6.8 -1.337,0.262 -4.669,0.4 -10,0.4 H 0 Z m 0,-27.6 c 2.4,0 6.263,-0.069 11.6,-0.2 5.331,-0.137 10.663,-0.2 16,-0.2 h 11.2 c 2.931,0 5.463,0.131 7.6,0.4 8.263,0.262 15.463,1.4 21.6,3.4 6.131,2 11.462,4.4 16,7.2 4.531,2.8 8.332,5.931 11.4,9.4 3.062,3.462 5.531,6.8 7.4,10 2.931,4.8 5.063,10.131 6.4,16 1.331,5.862 2.132,11.862 2.4,18 0,0.8 -0.138,1.462 -0.4,2 v 4.2 c 0,1.463 -0.137,2.862 -0.4,4.2 -0.269,2.662 -0.937,5.731 -2,9.2 -0.537,2.662 -1.069,4.531 -1.6,5.6 -5.6,14.131 -16.137,24.4 -31.6,30.8 -5.6,2.131 -11,3.862 -16.2,5.2 -5.2,1.331 -10.469,2.262 -15.8,2.8 H -17.2 V 0 h 12.4 v 75.2 h 2.4 27 C 31.4,75.2 35.863,75.063 38,74.8 48.131,74 56.663,71.462 63.6,67.2 74.263,60.531 79.6,50.262 79.6,36.4 79.863,30.8 78.931,25.062 76.8,19.2 70.663,4 58.131,-4 39.2,-4.8 H 14.8 0 Z M -71.6,-146.4 H -22 V -4.8 h -22.8 -10.4 v 121.6 h 68.4 c 5.862,0 11.731,-0.069 17.6,-0.2 5.863,-0.138 11.063,-0.338 15.6,-0.6 6.932,-0.538 13.4,-1.469 19.4,-2.8 6,-1.338 11.532,-2.938 16.6,-4.8 20.8,-7.469 35.062,-20.669 42.8,-39.6 1.063,-2.4 1.731,-4.669 2,-6.8 1.063,-3.469 1.862,-7.469 2.4,-12 0.531,-1.6 0.8,-3.269 0.8,-5 0,-1.738 0.131,-3.669 0.4,-5.8 v -2.8 c -0.537,-16 -4.137,-30 -10.8,-42 l 7.6,-4.8 c 8.531,13.331 12.8,28.931 12.8,46.8 v 3.2 c 0,2.131 -0.068,4.2 -0.2,6.2 -0.138,2 -0.337,4.062 -0.6,6.2 -0.538,2.4 -1,4.662 -1.4,6.8 -0.4,2.131 -0.868,4.263 -1.4,6.4 -0.537,1.331 -1,2.662 -1.4,4 -0.4,1.331 -0.869,2.531 -1.4,3.6 -8,20.263 -23.869,34.4 -47.6,42.4 -10.4,3.731 -23.068,6.262 -38,7.6 -7.2,0.531 -15.269,0.862 -24.2,1 -8.937,0.131 -17.269,0.2 -25,0.2 h -70.8 z m 54.4,-4.8 H -76 v 280 h 75.2 c 7.731,0 16.132,-0.069 25.2,-0.2 9.062,-0.138 17.2,-0.469 24.4,-1 7.463,-0.537 14.463,-1.469 21,-2.8 6.532,-1.338 12.6,-2.938 18.2,-4.8 25.332,-9.069 42.131,-24.138 50.4,-45.2 0.531,-1.338 1,-2.669 1.4,-4 0.4,-1.338 0.863,-2.669 1.4,-4 0.531,-2.4 1.063,-4.737 1.6,-7 0.532,-2.269 0.931,-4.737 1.2,-7.4 0.8,-4 1.2,-8.138 1.2,-12.4 v -4 c -0.537,-19.469 -5.469,-36.538 -14.8,-51.2 l -1.2,-1.6 -16,9.6 1.6,2 C 122.263,7.331 126,21.2 126,36.4 v 2.8 c 0,1.863 -0.069,3.6 -0.2,5.2 -0.137,1.6 -0.338,3.331 -0.6,5.2 -0.537,4 -1.337,7.731 -2.4,11.2 -0.269,1.862 -0.937,4 -2,6.4 -6.937,17.331 -20.269,29.6 -40,36.8 -9.6,3.462 -21.2,5.862 -34.8,7.2 -3.2,0.262 -6.8,0.462 -10.8,0.6 -4,0.131 -8.069,0.2 -12.2,0.2 H 10.6 -0.8 -18 -50.4 V 0 h 5.6 22.8 v 104.8 h 65.6 c 11.732,-0.8 22.931,-3.469 33.6,-8 17.063,-6.938 28.531,-18.138 34.4,-33.6 0.531,-1.069 0.862,-2 1,-2.8 0.131,-0.8 0.463,-1.738 1,-2.8 0.531,-1.6 0.862,-3.269 1,-5 0.131,-1.738 0.463,-3.4 1,-5 0.263,-1.338 0.4,-2.8 0.4,-4.4 v -4.8 -2 c 0,-13.6 -3.069,-25.738 -9.2,-36.4 -2.137,-3.469 -4.8,-7.069 -8,-10.8 -3.2,-3.738 -7.2,-7.137 -12,-10.2 -4.8,-3.069 -10.537,-5.669 -17.2,-7.8 -6.669,-2.137 -14.4,-3.338 -23.2,-3.6 -1.869,0 -4.337,-0.069 -7.4,-0.2 -3.069,-0.138 -6.869,-0.2 -11.4,-0.2 H 7.2 c -3.2,0 -6.4,0.131 -9.6,0.4 h -2.4 v 27.6 h -12.4 z"
             style="fill:#231f20;fill-opacity:1;fill-rule:nonzero;stroke:none"
             id="path22"
             inkscape:connector-curvature="0" /></g><g
           id="g24"
           transform="translate(602.7051,784.1367)"><path
             d="M 0,0 C -5.068,5.062 -10.801,9.731 -17.201,14 L -19.6,10.4 C -13.201,6.131 -7.469,1.463 -2.4,-3.6 4,-10 9.063,-16.4 12.799,-22.8 l 4,2 c -2.137,3.732 -4.6,7.263 -7.399,10.6 -2.8,3.331 -5.67,6.6 -8.601,9.8 z m -80.801,-152 c 8.801,0.263 17.131,2.2 25,5.8 7.863,3.6 14.733,8.4 20.6,14.4 5.863,6 10.463,13 13.801,21 3.332,8 5,16.531 5,25.6 0,9.063 -1.668,17.532 -5,25.4 -3.338,7.862 -7.938,14.8 -13.801,20.8 -5.867,6 -12.737,10.8 -20.6,14.4 -7.869,3.6 -16.199,5.663 -25,6.2 z m 59.6,168.8 c -18.938,11.463 -39.6,17.2 -62,17.2 -4.537,0 -9.137,-0.2 -13.799,-0.6 -4.669,-0.4 -9.269,-1.269 -13.8,-2.6 l 1.2,-4 c 1.862,0.532 3.662,0.931 5.4,1.2 1.731,0.263 3.531,0.531 5.4,0.8 1.862,0.262 3.862,0.463 5.999,0.6 2.131,0.131 4.401,0.2 6.801,0.2 4.262,0 8.262,-0.137 12,-0.4 3.73,-0.268 6.662,-0.537 8.799,-0.8 L -64,28 c 14.932,-2.4 28.4,-7.337 40.4,-14.8 z m -61.6,33.6 c -5.338,0 -10.736,-0.337 -16.199,-1 -5.469,-0.669 -10.869,-1.669 -16.2,-3 l 3.2,-10.8 c 9.862,2.131 19.463,3.2 28.799,3.2 23.463,0 45.062,-6.137 64.801,-18.4 1.599,2.131 3,4 4.199,5.6 1.201,1.6 2.062,2.932 2.601,4 -21.338,13.6 -45.07,20.4 -71.201,20.4 m -87.599,-222 0.4,-0.4 1.2,2 z m 3.2,171.2 c -2.938,-2.937 -5.6,-5.937 -8,-9 -2.4,-3.069 -4.669,-6.2 -6.8,-9.4 l 29.2,-18.8 c 8,11.2 18.062,19.932 30.2,26.2 12.131,6.263 25.131,9.4 39,9.4 14.93,0 28.799,-3.6 41.6,-10.8 l 15.6,22 c -12,7.2 -24.801,12 -38.401,14.4 H -66 c -1.869,0.263 -4.67,0.531 -8.4,0.8 -3.739,0.263 -7.6,0.4 -11.6,0.4 h -6.6 c -2,0 -3.8,-0.269 -5.4,-0.8 -4,-0.269 -8.269,-1.068 -12.8,-2.4 l -2,-0.8 -2.8,8.8 c -19.738,-5.337 -36.938,-15.337 -51.6,-30 m -17.2,-22.4 c -6.938,-11.469 -11.738,-23.6 -14.4,-36.4 -2.669,-12.8 -3.338,-25.6 -2,-38.4 1.331,-12.8 4.731,-25.137 10.2,-37 5.462,-11.869 12.862,-22.6 22.2,-32.2 l 22.8,22.4 c -7.469,7.732 -13.138,16.531 -17,26.4 -3.869,9.863 -5.8,20.263 -5.8,31.2 0,16 4.4,31.063 13.2,45.2 z M -82.801,-220 c 18.401,0 35.733,3.463 52,10.4 16.264,6.931 30.531,16.4 42.801,28.4 12.262,12 22,26.063 29.199,42.2 7.201,16.131 10.932,33.4 11.201,51.8 h -12 c -0.269,-10.669 -1.8,-21 -4.601,-31 -2.799,-10 -6.867,-19.537 -12.199,-28.6 -8.801,-14.937 -20.2,-27.4 -34.2,-37.4 -14,-10 -29.4,-16.868 -46.201,-20.6 -4.267,-1.068 -8.537,-1.8 -12.799,-2.2 -4.269,-0.399 -8.67,-0.6 -13.201,-0.6 H -85.6 v 50.8 c -9.601,0.263 -18.6,2.331 -27,6.2 -8.4,3.863 -15.738,9 -22,15.4 -6.269,6.4 -11.2,13.931 -14.8,22.6 -3.6,8.662 -5.4,17.8 -5.4,27.4 0,13.063 3.462,25.331 10.4,36.8 l -6.8,4.4 c -8.269,-13.337 -12.4,-27.6 -12.4,-42.8 0,-10.669 1.931,-20.8 5.8,-30.4 3.862,-9.6 9.662,-18.137 17.4,-25.6 l 1.6,-2 -29.6,-28.8 -1.6,1.6 -0.4,0.4 c -10.138,9.863 -18.138,21.131 -24,33.8 -5.869,12.663 -9.6,25.663 -11.2,39 -1.6,13.331 -1,26.8 1.8,40.4 2.8,13.6 7.931,26.4 15.4,38.4 l -9.6,6 c -13.338,-21.337 -20,-44.938 -20,-70.8 0,-18.669 3.531,-36.2 10.6,-52.6 7.062,-16.4 16.731,-30.738 29,-42.999 12.262,-12.27 26.6,-21.938 43,-29 16.4,-7.07 33.931,-10.601 52.599,-10.601 m 140,136.8 v -2 c 0,-19.468 -3.668,-37.6 -11,-54.4 -7.338,-16.8 -17.4,-31.6 -30.199,-44.4 -12.801,-12.8 -27.6,-22.8 -44.4,-30 -16.801,-7.2 -34.938,-10.8 -54.401,-10.8 -19.199,0 -37.337,3.662 -54.399,11 -17.069,7.331 -31.938,17.331 -44.6,30 -12.669,12.662 -22.669,27.531 -30,44.6 -7.338,17.063 -11,35.2 -11,54.4 0,27.2 7.331,52.4 22,75.6 l 1.6,2 13.6,-8.8 c 4.262,6.4 9.331,12.663 15.2,18.8 15.462,14.931 33.331,25.463 53.6,31.6 l -4.4,15.6 2.4,0.4 c 11.462,3.2 23.462,4.8 35.999,4.8 18.662,0 36.932,-3.737 54.801,-11.2 1.861,-0.8 4,-1.8 6.4,-3 2.399,-1.2 4.731,-2.469 7,-3.8 2.262,-1.337 4.33,-2.537 6.2,-3.6 1.863,-1.069 3.062,-1.869 3.599,-2.4 -0.267,-0.268 -0.537,-0.6 -0.799,-1 -0.269,-0.4 -1.337,-1.937 -3.201,-4.6 L -14.4,18 C -7.469,13.2 -1.338,8.131 4,2.8 L 4.799,2 C 11.73,-4.937 17.6,-12.4 22.4,-20.4 l 1.2,-2.4 -12.401,-6 -1.199,1.6 c -4.537,7.463 -9.738,14.132 -15.6,20 -5.601,5.6 -11.201,10.263 -16.8,14 l -18.401,-25.6 -2,1.2 c -6.137,3.731 -12.668,6.463 -19.599,8.2 -6.938,1.732 -14,2.6 -21.2,2.6 -13.07,0 -25.269,-2.937 -36.6,-8.8 -11.338,-5.869 -20.869,-14 -28.6,-24.4 l 10.8,-7.2 -1.2,-2 c -7.2,-10.937 -10.8,-22.937 -10.8,-36 0,-9.069 1.662,-17.6 5,-25.6 3.331,-8 7.931,-15 13.8,-21 5.862,-6 12.731,-10.8 20.6,-14.4 7.862,-3.6 16.2,-5.537 25,-5.8 v 138 h 2.399 c 9.863,0 19.133,-1.869 27.801,-5.6 8.662,-3.737 16.261,-8.8 22.8,-15.2 6.532,-6.4 11.663,-13.937 15.399,-22.6 3.732,-8.668 5.601,-17.937 5.601,-27.8 0,-9.6 -1.8,-18.738 -5.4,-27.4 -3.6,-8.669 -8.537,-16.2 -14.801,-22.6 -6.267,-6.4 -13.599,-11.537 -22,-15.4 -8.4,-3.869 -17.4,-5.937 -27,-6.2 v -46.4 c 8.531,0.531 16.264,1.463 23.201,2.801 16.262,3.462 31.063,10.062 44.399,19.799 13.332,9.732 24.264,21.8 32.801,36.2 10.662,18.4 16,38.263 16,59.6 v 2 z"
             style="fill:#231f20;fill-opacity:1;fill-rule:nonzero;stroke:none"
             id="path26"
             inkscape:connector-curvature="0" /></g><path
           d="m 833.5,730.937 h -81.2 v -55.6 h 81.2 z m 52,90 H 752.3 v -40.8 h 133.2 z m 0,14 H 752.3 v -9.2 h 133.2 z m 2.8,-255.2 v 41.6 H 747.5 v 49.6 h -23.2 v -91.2 z m -140.8,195.6 h -23.2 v -39.6 h 23.2 z m 150.8,-210.8 v 256.4 h -8.401 v -45.6 H 752.3 v -39.6 h 86 v -64.8 h -86 v -44.8 h 140.8 v -51.2 H 719.5 v 100.4 h 28 v 55.6 h -28 v 49.2 h 28 v 40.8 h -64 v -256.4 z m -219.6,-4.8 v 266 h 68.8 v 14 h 142.399 v -14 H 902.7 v -266 z"
           style="fill:#231f20;fill-opacity:1;fill-rule:nonzero;stroke:none"
           id="path28"
           inkscape:connector-curvature="0" /></g></g></g></svg>