<?xml version="1.0" encoding="UTF-8" standalone="no"?>
<!-- Created with Inkscape (http://www.inkscape.org/) -->

<svg
   xmlns:dc="http://purl.org/dc/elements/1.1/"
   xmlns:cc="http://creativecommons.org/ns#"
   xmlns:rdf="http://www.w3.org/1999/02/22-rdf-syntax-ns#"
   xmlns:svg="http://www.w3.org/2000/svg"
   xmlns="http://www.w3.org/2000/svg"
   xmlns:sodipodi="http://sodipodi.sourceforge.net/DTD/sodipodi-0.dtd"
   xmlns:inkscape="http://www.inkscape.org/namespaces/inkscape"
   width="293.01501"
   height="100"
   viewBox="0 0 77.526888 26.458333"
   version="1.1"
   id="svg2699"
   sodipodi:docname="react-logo.svg"
   inkscape:version="0.92.2 (unknown)">
  <defs
     id="defs2693">
    <clipPath
       clipPathUnits="userSpaceOnUse"
       id="clipPath920">
      <path
         d="m 692.448,192.808 -12.441,-7.18 c -0.466,-0.269 -0.752,-0.764 -0.752,-1.302 v 0 -14.37 c 0,-0.537 0.286,-1.032 0.75,-1.302 v 0 l 12.443,-7.184 c 0.464,-0.269 1.037,-0.269 1.502,0 v 0 l 12.439,7.184 c 0.464,0.27 0.75,0.765 0.75,1.302 v 0 14.371 c 0,0.537 -0.286,1.032 -0.75,1.301 v 0 l -12.439,7.18 c -0.232,0.134 -0.492,0.201 -0.751,0.201 v 0 c -0.26,0 -0.519,-0.067 -0.751,-0.201"
         id="path918"
         inkscape:connector-curvature="0" />
    </clipPath>
  </defs>
  <sodipodi:namedview
     id="base"
     pagecolor="#ffffff"
     bordercolor="#666666"
     borderopacity="1.0"
     inkscape:pageopacity="0.0"
     inkscape:pageshadow="2"
     inkscape:zoom="9.2933349"
     inkscape:cx="172.274"
     inkscape:cy="50"
     inkscape:document-units="mm"
     inkscape:current-layer="layer1"
     showgrid="false"
     units="px"
     inkscape:window-width="3775"
     inkscape:window-height="2136"
     inkscape:window-x="65"
     inkscape:window-y="24"
     inkscape:window-maximized="1" />
  <metadata
     id="metadata2696">
    <rdf:RDF>
      <cc:Work
         rdf:about="">
        <dc:format>image/svg+xml</dc:format>
        <dc:type
           rdf:resource="http://purl.org/dc/dcmitype/StillImage" />
        <dc:title></dc:title>
      </cc:Work>
    </rdf:RDF>
  </metadata>
  <g
     inkscape:label="Layer 1"
     inkscape:groupmode="layer"
     id="layer1"
     transform="translate(0,-270.54167)">
    <g
       id="g878"
       transform="matrix(0.37797756,0,0,-0.37797756,16.658983,289.78829)"
       style="fill:#056c8c;fill-opacity:1">
      <path
         d="m 0,0 c -1.525,-2.072 -3.066,-3.977 -4.606,-5.685 -1.582,1.708 -3.178,3.613 -4.732,5.657 1.512,-0.057 3.038,-0.084 4.592,-0.084 1.596,0 3.179,0.042 4.746,0.111 z m -24.305,1.764 c 3.276,-0.729 6.846,-1.233 10.599,-1.527 2.184,-3.08 4.466,-5.894 6.748,-8.343 -0.504,-0.491 -0.994,-0.953 -1.498,-1.387 -3.15,-2.758 -6.244,-4.607 -8.793,-5.502 -2.562,-0.91 -4.48,-0.813 -5.516,-0.21 -1.007,0.574 -1.974,2.058 -2.45,4.55 -0.462,2.492 -0.406,5.881 0.336,9.814 0.154,0.841 0.35,1.708 0.574,2.605 M 14.98,1.918 c 0.169,-0.645 0.309,-1.288 0.435,-1.904 0.812,-4.117 0.868,-7.715 0.378,-10.375 -0.49,-2.674 -1.54,-4.285 -2.576,-4.886 -1.008,-0.588 -2.773,-0.687 -5.166,0.154 -2.395,0.854 -5.307,2.59 -8.331,5.194 -0.657,0.56 -1.316,1.162 -1.974,1.806 C 0,-5.629 2.212,-2.801 4.341,0.279 8.12,0.615 11.705,1.161 14.98,1.918 m -35.827,10.038 c 0.701,-1.358 1.443,-2.716 2.226,-4.074 0.799,-1.372 1.624,-2.716 2.465,-4.032 -2.549,0.28 -4.985,0.671 -7.239,1.162 0.686,2.226 1.541,4.55 2.548,6.944 m 32.272,0.112 C 12.461,9.688 13.356,7.364 14.057,5.151 11.774,4.634 9.311,4.214 6.734,3.905 7.547,5.208 8.358,6.552 9.143,7.91 c 0.797,1.386 1.553,2.772 2.282,4.158 m 99.489,2.1 c 2.521,0 5.04,-0.966 6.44,-2.884 V 6.901 c -1.4,-1.931 -3.919,-2.883 -6.44,-2.883 -3.36,0 -5.74,2.114 -5.74,5.04 0,2.996 2.38,5.11 5.74,5.11 M 86.833,22.82 c 5.32,0 7.561,-4.284 7.7,-7.742 H 79.314 c 0.182,3.557 2.647,7.742 7.519,7.742 m -91.579,0.183 c -3.872,-0.006 -7.009,-3.143 -7.015,-7.015 -0.002,-3.877 3.138,-7.022 7.015,-7.028 3.88,-0.002 7.026,3.141 7.028,7.019 v 0.009 c -0.005,3.877 -3.151,7.017 -7.028,7.015 m 21.925,2.786 c 0.799,-0.238 1.582,-0.49 2.324,-0.742 3.836,-1.317 6.889,-2.969 8.891,-4.649 1.988,-1.666 2.828,-3.261 2.828,-4.41 0,-1.217 -0.897,-2.925 -3.038,-4.69 C 26.027,9.534 22.766,7.784 18.649,6.412 18.215,6.271 17.781,6.132 17.333,6.006 c -1.008,3.192 -2.366,6.553 -3.99,9.954 1.568,3.36 2.856,6.665 3.836,9.829 m 120.476,0.014 c -6.86,0 -11.62,-5.292 -11.62,-12.167 0,-6.93 4.76,-12.222 11.62,-12.222 4.2,0 6.721,1.735 8.54,4.046 l -2.38,2.212 c -1.54,-2.072 -3.5,-3.038 -5.879,-3.038 -5.04,0 -8.122,3.85 -8.122,9.002 0,5.152 3.082,8.947 8.122,8.947 2.379,0 4.339,-0.91 5.879,-3.024 l 2.38,2.212 c -1.819,2.31 -4.34,4.032 -8.54,4.032 m -25.761,0 c -3.78,0 -6.72,-1.246 -9.241,-3.851 l 1.681,-2.492 c 2.1,2.213 4.34,3.221 7.14,3.221 3.36,0 5.88,-1.779 5.88,-4.914 V 13.58 c -1.959,2.17 -4.62,3.179 -7.7,3.179 -3.921,0 -8.121,-2.45 -8.121,-7.645 0,-5.054 4.2,-7.7 8.121,-7.7 3.08,0 5.741,1.106 7.7,3.22 V 1.987 h 3.5 v 15.975 c 0,5.629 -4.06,7.841 -8.96,7.841 m -24.921,0 c -6.651,0 -11.467,-5.433 -11.467,-12.167 0,-7.266 4.957,-12.222 11.747,-12.222 3.78,0 7,1.245 9.24,3.556 l -1.68,2.366 c -1.82,-1.876 -4.48,-2.94 -7.14,-2.94 -4.998,0 -8.078,3.654 -8.359,8.036 h 18.719 v 0.91 c 0,6.986 -4.059,12.461 -11.06,12.461 m -113.588,0.028 c 0.98,-3.179 2.268,-6.524 3.836,-9.927 -1.596,-3.458 -2.898,-6.846 -3.892,-10.066 -0.658,0.182 -1.302,0.391 -1.933,0.601 -3.975,1.359 -7.115,3.109 -9.173,4.874 -2.062,1.763 -2.937,3.471 -2.937,4.675 0,1.162 0.8,2.731 2.729,4.382 1.927,1.652 4.887,3.305 8.668,4.62 0.854,0.295 1.764,0.574 2.702,0.841 m 33.349,2.044 c 2.521,-0.309 4.929,-0.742 7.169,-1.246 -0.673,-2.185 -1.526,-4.452 -2.52,-6.776 -0.714,1.358 -1.47,2.73 -2.254,4.087 -0.784,1.345 -1.582,2.661 -2.395,3.935 m -22.961,0.014 c -0.826,-1.288 -1.624,-2.604 -2.408,-3.962 -0.784,-1.359 -1.511,-2.716 -2.212,-4.061 -0.994,2.324 -1.82,4.607 -2.506,6.791 2.24,0.504 4.621,0.909 7.126,1.232 m 11.481,0.7 c 2.45,0 4.845,-0.098 7.168,-0.266 C 3.738,26.391 5.013,24.36 6.23,22.261 7.448,20.16 8.583,18.046 9.604,15.96 8.583,13.846 7.463,11.704 6.23,9.59 5.013,7.476 3.752,5.445 2.45,3.5 0.112,3.332 -2.296,3.248 -4.746,3.248 c -2.422,0 -4.802,0.084 -7.126,0.224 -1.316,1.946 -2.605,3.976 -3.837,6.09 -1.231,2.114 -2.352,4.242 -3.359,6.342 1.007,2.115 2.128,4.229 3.345,6.343 1.218,2.113 2.506,4.144 3.823,6.076 2.324,0.168 4.717,0.266 7.154,0.266 m 58.51,1.932 h 8.414 c 3.794,0 6.398,-2.506 6.398,-6.104 0,-3.612 -2.604,-6.16 -6.398,-6.16 h -8.414 z m 97.752,1.064 v -6.356 h -3.781 v -3.178 h 3.781 V 6.846 c 0,-3.458 1.82,-5.432 5.18,-5.432 2.1,0 3.5,0.63 4.34,1.498 l -1.12,2.688 c -0.42,-0.533 -1.399,-0.966 -2.38,-0.966 -1.54,0 -2.38,1.26 -2.38,2.982 v 14.435 h 4.76 v 3.178 h -4.76 v 6.356 z M 49.759,34.077 V 1.987 h 4.005 v 12.755 h 6.397 L 68.338,1.987 h 4.719 L 64.39,15.078 c 4.381,0.393 8.33,3.557 8.33,9.339 0,5.908 -4.186,9.66 -10.067,9.66 z m -54.463,3.332 c 1.554,-1.666 3.094,-3.542 4.62,-5.572 -1.526,0.07 -3.094,0.112 -4.662,0.112 -1.554,0 -3.094,-0.042 -4.62,-0.112 1.54,2.03 3.108,3.892 4.662,5.572 m -16.24,10.053 h 0.336 c 0.937,-0.026 2.071,-0.252 3.374,-0.736 2.603,-0.972 5.754,-2.927 8.988,-5.811 0.392,-0.35 0.784,-0.714 1.176,-1.098 -2.268,-2.436 -4.523,-5.222 -6.693,-8.274 -3.71,-0.35 -7.252,-0.91 -10.486,-1.638 -0.21,0.826 -0.392,1.638 -0.546,2.422 -0.784,3.977 -0.868,7.448 -0.434,10.016 0.448,2.566 1.414,4.093 2.408,4.67 0.463,0.267 1.092,0.43 1.877,0.45 z m 32.033,0.077 c 0.882,0.023 1.582,-0.141 2.072,-0.428 1.064,-0.608 2.086,-2.247 2.548,-4.979 0.462,-2.748 0.336,-6.444 -0.546,-10.701 -0.112,-0.518 -0.225,-1.036 -0.35,-1.568 -3.249,0.756 -6.791,1.316 -10.514,1.666 -2.143,3.052 -4.383,5.852 -6.651,8.302 0.616,0.578 1.205,1.139 1.806,1.656 3.067,2.662 6.021,4.475 8.471,5.374 1.218,0.45 2.282,0.656 3.164,0.678 m 0.238,3.381 H 11.075 C 9.703,50.892 8.247,50.564 6.763,50.016 3.78,48.921 0.546,46.89 -2.744,44.024 c -0.644,-0.561 -1.302,-1.163 -1.96,-1.793 -0.434,0.42 -0.868,0.812 -1.302,1.205 -3.486,3.09 -6.917,5.265 -10.053,6.437 -1.568,0.585 -3.093,0.937 -4.522,0.97 -1.428,0.035 -2.758,-0.245 -3.92,-0.923 -2.269,-1.306 -3.5,-3.879 -4.032,-7.003 -0.546,-3.142 -0.406,-6.95 0.433,-11.234 0.169,-0.854 0.365,-1.722 0.589,-2.619 -1.009,-0.279 -1.988,-0.587 -2.912,-0.909 -4.079,-1.414 -7.377,-3.207 -9.746,-5.222 -2.369,-2.031 -3.905,-4.382 -3.905,-6.945 0,-2.646 1.614,-5.096 4.111,-7.224 2.496,-2.142 5.98,-4.046 10.281,-5.502 0.687,-0.239 1.387,-0.462 2.115,-0.672 -0.238,-0.952 -0.449,-1.891 -0.617,-2.801 -0.797,-4.242 -0.895,-7.994 -0.336,-11.06 0.575,-3.066 1.849,-5.573 4.075,-6.846 2.282,-1.33 5.209,-1.149 8.316,-0.057 3.095,1.093 6.469,3.165 9.885,6.161 0.546,0.476 1.092,0.98 1.638,1.512 0.714,-0.687 1.428,-1.344 2.142,-1.946 3.262,-2.814 6.454,-4.775 9.395,-5.811 2.94,-1.035 5.754,-1.189 7.965,0.099 2.297,1.33 3.599,3.948 4.201,7.182 0.602,3.234 0.49,7.197 -0.392,11.649 -0.14,0.685 -0.294,1.399 -0.462,2.099 0.49,0.155 0.98,0.309 1.456,0.462 4.424,1.456 8.023,3.332 10.613,5.461 2.589,2.128 4.27,4.592 4.27,7.294 0,2.605 -1.61,4.956 -4.046,7 -2.436,2.031 -5.81,3.823 -9.941,5.237 -0.812,0.28 -1.652,0.546 -2.52,0.797 0.14,0.575 0.28,1.149 0.392,1.723 0.938,4.565 1.106,8.624 0.56,11.933 -0.56,3.306 -1.848,5.995 -4.186,7.344 -1.05,0.611 -2.254,0.888 -3.514,0.898"
         style="fill:#056c8c;fill-opacity:1;fill-rule:nonzero;stroke:none"
         id="path880"
         inkscape:connector-curvature="0" />
    </g>
  </g>
</svg>
