<?xml version="1.0" encoding="UTF-8" standalone="no"?>
<!-- Generator: Adobe Illustrator 19.0.0, SVG Export Plug-In . SVG Version: 6.00 Build 0)  -->

<svg
   xmlns:dc="http://purl.org/dc/elements/1.1/"
   xmlns:cc="http://creativecommons.org/ns#"
   xmlns:rdf="http://www.w3.org/1999/02/22-rdf-syntax-ns#"
   xmlns:svg="http://www.w3.org/2000/svg"
   xmlns="http://www.w3.org/2000/svg"
   xmlns:sodipodi="http://sodipodi.sourceforge.net/DTD/sodipodi-0.dtd"
   xmlns:inkscape="http://www.inkscape.org/namespaces/inkscape"
   version="1.1"
   id="Layer_1"
   x="0px"
   y="0px"
   viewBox="0 0 28.5 22.000001"
   xml:space="preserve"
   sodipodi:docname="sdk.svg"
   inkscape:version="0.92.2 (unknown)"
   width="28.5"
   height="22"><metadata
     id="metadata22"><rdf:RDF><cc:Work
         rdf:about=""><dc:format>image/svg+xml</dc:format><dc:type
           rdf:resource="http://purl.org/dc/dcmitype/StillImage" /><dc:title></dc:title></cc:Work></rdf:RDF></metadata><defs
     id="defs20" /><sodipodi:namedview
     pagecolor="#ffffff"
     bordercolor="#666666"
     borderopacity="1"
     objecttolerance="10"
     gridtolerance="10"
     guidetolerance="10"
     inkscape:pageopacity="0"
     inkscape:pageshadow="2"
     inkscape:window-width="3775"
     inkscape:window-height="2136"
     id="namedview18"
     showgrid="false"
     inkscape:zoom="55.124656"
     inkscape:cx="15.8"
     inkscape:cy="18.049999"
     inkscape:window-x="65"
     inkscape:window-y="24"
     inkscape:window-maximized="1"
     inkscape:current-layer="XMLID_100_" /><style
     type="text/css"
     id="style2">
	.st0{fill:#00a1e1;}
</style><g
     id="XMLID_100_"
     transform="translate(0,-14.099998)"><g
       id="g841"
       transform="translate(0.1782412,0.0038173)"><g
         transform="translate(-1.5782412,5.6961807)"
         id="XMLID_108_"><g
           style="fill:#259fc4;fill-opacity:1"
           id="XMLID_110_"><path
             inkscape:connector-curvature="0"
             style="fill:#259fc4;fill-opacity:1"
             d="M 12,9"
             class="st0"
             id="XMLID_116_" /><polygon
             style="fill:#259fc4;fill-opacity:1"
             points="12,8.4 16.5,10.7 8,12.9 1.7,10.5 "
             class="st0"
             id="XMLID_115_" /><polygon
             style="fill:#259fc4;fill-opacity:1"
             points="1.6,16.3 8,13 16.5,15.1 11.9,18.5 "
             class="st0"
             id="XMLID_114_" /><path
             inkscape:connector-curvature="0"
             style="fill:#259fc4;fill-opacity:1"
             d="M 21.1,9"
             class="st0"
             id="XMLID_113_" /><polygon
             style="fill:#259fc4;fill-opacity:1"
             points="20.9,8.4 16.5,10.7 25,12.9 29.7,10.5 "
             class="st0"
             id="XMLID_112_" /><polygon
             style="fill:#259fc4;fill-opacity:1"
             points="29.7,16.2 25,13 16.5,15.1 21,18.4 "
             class="st0"
             id="XMLID_111_" /></g><rect
           style="fill:#259fc4;fill-opacity:1"
           height="4.4000001"
           width="0.40000001"
           class="st0"
           y="10.7"
           x="16.299999"
           id="XMLID_109_" /></g><g
         transform="translate(-1.5782412,5.6961807)"
         style="fill:#259fc4;fill-opacity:1"
         id="XMLID_101_"><path
           inkscape:connector-curvature="0"
           style="fill:#259fc4;fill-opacity:1"
           d="m 16,23.2 h -0.1 v 2.2 H 16 c 0.6,0 1,-0.3 1,-1.1 0,-0.8 -0.4,-1.1 -1,-1.1 z"
           class="st0"
           id="XMLID_107_" /><path
           inkscape:connector-curvature="0"
           style="fill:#259fc4;fill-opacity:1"
           d="m 20.7,19.4 -4.3,-3.3 -4.5,3.3 -4.6,-1.2 v 10 l 8.8,2.2 8.8,-2.2 v -10 z M 13.2,26 c -0.4,0 -0.9,-0.2 -1.3,-0.5 L 12.3,25 c 0.2,0.2 0.6,0.4 0.8,0.4 0.3,0 0.5,-0.1 0.5,-0.3 0,-0.2 -0.2,-0.3 -0.5,-0.4 L 12.7,24.5 C 12.4,24.3 12,24 12,23.5 c 0,-0.6 0.5,-1 1.2,-1 0.4,0 0.8,0.2 1.1,0.5 L 14,23.4 c -0.2,-0.2 -0.4,-0.3 -0.7,-0.3 -0.3,0 -0.4,0.1 -0.4,0.3 0,0.2 0.2,0.3 0.5,0.4 l 0.4,0.2 c 0.4,0.2 0.7,0.4 0.7,0.9 C 14.4,25.5 14,26 13.2,26 Z m 2.9,0 h -1 v -3.4 h 1 c 1.1,0 1.7,0.5 1.7,1.7 0,1.1 -0.7,1.7 -1.7,1.7 z m 4.3,0 -0.8,-1.4 -0.4,0.4 v 1 h -0.8 v -3.4 h 0.8 v 1.4 0 l 1,-1.4 H 21 l -1,1.4 1.2,2.1 h -0.8 z"
           class="st0"
           id="XMLID_102_" /></g></g></g></svg>